<?xml version="1.0" encoding="UTF-8" standalone="no"?>
<!-- Created with Inkscape (http://www.inkscape.org/) -->

<svg
   width="277.11099mm"
   height="247.036mm"
   viewBox="0 0 277.11101 247.03599"
   version="1.1"
   id="svg1"
   sodipodi:docname="logo_svg.svg"
   inkscape:version="1.4 (86a8ad7, 2024-10-11)"
   xmlns:inkscape="http://www.inkscape.org/namespaces/inkscape"
   xmlns:sodipodi="http://sodipodi.sourceforge.net/DTD/sodipodi-0.dtd"
   xmlns="http://www.w3.org/2000/svg"
   xmlns:svg="http://www.w3.org/2000/svg">
  <sodipodi:namedview
     id="namedview1"
     pagecolor="#505050"
     bordercolor="#eeeeee"
     borderopacity="1"
     inkscape:showpageshadow="0"
     inkscape:pageopacity="0"
     inkscape:pagecheckerboard="0"
     inkscape:deskcolor="#505050"
     inkscape:document-units="mm"
     inkscape:zoom="0.68862935"
     inkscape:cx="432.0176"
     inkscape:cy="491.55616"
     inkscape:window-width="1920"
     inkscape:window-height="991"
     inkscape:window-x="-9"
     inkscape:window-y="-9"
     inkscape:window-maximized="1"
     inkscape:current-layer="layer1" />
  <defs
     id="defs1" />
  <g
     inkscape:label="Layer 1"
     inkscape:groupmode="layer"
     id="layer1">
    <path
       style="fill:#d0d0d0;fill-opacity:1;stroke-width:0.264583"
       d="M 118.78356,246.80895 C 94.530752,245.83028 70.771598,238.96961 52.345276,227.62425 40.453314,220.30219 29.244392,209.7979 21.391403,198.61625 11.692082,184.80566 4.977748,167.92789 1.992407,149.85315 0.53690798,141.04084 0.01767298,134.42036 3.1898191e-4,124.45315 -0.02140102,111.96771 1.064331,102.63333 3.797244,91.81032 15.972053,43.595044 55.386492,9.3991013 107.80335,1.5746863 c 7.91839,-1.18199896 12.13224,-1.45651996 22.35729,-1.45651996 10.22505,0 14.4389,0.274521 22.35729,1.45651996 37.22948,5.557351 67.93102,24.1844297 86.96653,52.7638857 9.8442,14.779836 15.98917,31.213831 18.7161,50.053988 1.64542,11.36813 1.54255,25.52451 -0.26342,36.24663 -3.31108,19.65817 -12.44576,38.65784 -24.9738,51.94417 l -1.37215,1.45521 11.06494,0.16613 c 12.09733,0.18163 12.72815,0.24984 17.5364,1.89609 6.47403,2.21659 11.07037,6.21461 14.05482,12.22528 3.86424,7.78258 3.79831,17.28483 -0.17351,25.00312 -2.97532,5.78184 -7.58865,9.67899 -14.0775,11.8921 -5.41949,1.8484 0.67013,1.69905 -71.23049,1.74709 -35.72537,0.0238 -67.2174,-0.0479 -69.98229,-0.15943 z m 15.21354,-18.93046 c 0.2731,-0.26755 0.42597,-1.08728 0.49017,-2.62843 0.0613,-1.4705 0.19881,-2.23962 0.40055,-2.23962 0.169,0 1.06585,1.14099 1.99301,2.53553 1.87898,2.82615 2.47379,3.27075 3.63472,2.71693 0.58827,-0.28064 0.77507,-0.56804 0.83578,-1.28585 0.0635,-0.75102 -0.15019,-1.23177 -1.13938,-2.56291 l -1.21757,-1.63846 1.05848,-1.05849 c 1.22926,-1.22926 1.57454,-2.47878 1.11177,-4.02336 -0.66081,-2.2056 -2.04833,-2.85258 -6.2498,-2.91418 -4.29841,-0.063 -4.07924,-0.43059 -4.08685,6.85377 l -0.006,5.63441 0.67477,0.67476 c 0.73107,0.73107 1.71428,0.70586 2.50023,-0.0641 z m 0.50776,-7.58003 c -0.0118,-0.0364 -0.0403,-0.60192 -0.0635,-1.25677 l -0.042,-1.19062 1.11167,-0.0809 c 1.47328,-0.10718 2.19023,0.29819 2.19023,1.23833 0,0.53832 -0.18496,0.82624 -0.67391,1.04902 -0.57409,0.26157 -2.4576,0.44146 -2.5225,0.2409 z m 38.82838,7.75542 c 1.43119,-0.64979 2.11607,-1.655 1.77957,-2.61184 -0.38694,-1.10027 -1.44973,-1.3322 -2.89246,-0.63129 -1.39415,0.67733 -1.9993,0.7198 -2.98066,0.2092 -1.2974,-0.67503 -1.9725,-1.63808 -2.10343,-3.00061 -0.31535,-3.282 2.42746,-5.24775 5.36657,-3.84617 0.85906,0.40966 1.02272,0.41516 1.66263,0.056 0.58256,-0.32697 0.70976,-0.58531 0.70976,-1.44141 0,-0.96069 -0.0929,-1.09428 -1.17689,-1.69224 -0.96294,-0.53118 -1.54016,-0.64775 -3.175,-0.64114 -3.20978,0.013 -5.30879,1.21489 -6.55563,3.75386 -0.89736,1.82729 -0.9976,4.25029 -0.25544,6.17445 0.54342,1.4089 2.08691,2.93452 3.71838,3.67535 1.48907,0.67617 4.40874,0.67411 5.9026,-0.004 z m 20.24202,0.23963 c 2.83342,-0.78698 4.74149,-3.21238 4.9365,-6.27494 0.14147,-2.22176 -0.33493,-3.78965 -1.58194,-5.20634 -2.45009,-2.78344 -6.90349,-3.28216 -10.14147,-1.13569 -4.50744,2.98799 -3.54174,10.65384 1.57078,12.46912 1.2716,0.45149 3.85886,0.52483 5.21613,0.14785 z m -3.61879,-3.28271 c -1.09544,-0.53192 -1.53947,-0.9512 -1.92145,-1.81438 -0.4312,-0.97436 -0.41525,-2.37421 0.0394,-3.46244 1.02231,-2.44674 4.64384,-2.74636 6.13273,-0.50737 0.6563,0.98692 0.67882,3.4199 0.0407,4.39383 -0.96494,1.4727 -2.85842,2.08613 -4.29139,1.39036 z m 19.29528,3.25197 c 0.41419,-0.18873 0.83372,-0.74033 1.10673,-1.45521 l 0.43968,-1.15128 h 2.68945 2.68946 l 0.58157,1.19705 c 0.65819,1.35475 1.5274,1.84388 2.57133,1.44698 0.74002,-0.28136 1.25776,-1.33009 1.01027,-2.04642 -0.79259,-2.29415 -4.75949,-10.64276 -5.28127,-11.1148 -1.48493,-1.34337 -3.15271,-0.49093 -4.27061,2.18281 -0.30421,0.72761 -1.08242,2.45401 -1.72934,3.83646 -2.64562,5.65356 -2.72214,5.98072 -1.60436,6.85996 0.80947,0.63674 0.90699,0.65 1.79709,0.24445 z m 3.34872,-6.89594 c 0.85993,-2.18168 0.9577,-2.30138 1.25074,-1.53139 0.13846,0.36381 0.44449,1.1225 0.68007,1.68595 0.23557,0.56349 0.42832,1.0695 0.42832,1.12448 0,0.055 -0.65311,0.1 -1.45135,0.1 h -1.45135 z m 20.88728,6.7992 0.77478,-0.40065 0.072,-4.95716 0.072,-4.95715 1.5875,-0.13333 c 0.87313,-0.0733 1.73633,-0.2292 1.91823,-0.34636 0.40132,-0.25847 0.43162,-1.35099 0.0568,-2.05125 -0.25574,-0.47787 -0.60055,-0.51177 -5.20468,-0.51177 -4.21686,0 -5.00085,0.0634 -5.41465,0.43788 -0.26612,0.24084 -0.48385,0.69864 -0.48385,1.01733 0,0.91752 0.78801,1.41502 2.38439,1.50535 l 1.45207,0.0822 0.13229,4.85267 c 0.12825,4.70458 0.15136,4.86812 0.75691,5.35781 0.75353,0.60939 0.90385,0.61767 1.89624,0.10448 z m 20.16264,0.0164 c 2.07015,-0.86498 3.24823,-3.29213 2.58029,-5.31604 -0.3787,-1.14744 -1.86248,-2.29145 -3.7855,-2.91861 -1.6996,-0.55433 -2.03142,-0.81101 -2.03142,-1.57152 0,-0.9643 1.6282,-1.25806 2.91042,-0.52507 1.40481,0.80306 2.77022,0.0995 2.59953,-1.3395 -0.17481,-1.47357 -2.80379,-2.42427 -5.37765,-1.94468 -3.07721,0.57337 -4.65593,3.3294 -3.41051,5.95391 0.41892,0.88283 1.07326,1.28148 4.66728,2.84358 1.08241,0.47048 1.29386,1.15869 0.57642,1.87613 -0.58219,0.58219 -1.2473,0.52046 -2.78426,-0.25836 -1.40253,-0.71073 -2.20465,-0.67723 -2.80983,0.11731 -0.82171,1.07889 0.0479,2.56202 1.8388,3.13627 1.28625,0.4124 3.98003,0.38378 5.02643,-0.0534 z m -132.3359,-0.15409 c 0.35326,-0.18918 0.51178,-0.5551 0.51178,-1.18145 0,-0.99891 -0.53381,-1.45521 -1.7024,-1.45521 -0.37337,0 -0.67885,-0.11906 -0.67885,-0.26458 0,-0.14552 0.1105,-0.26458 0.24557,-0.26458 0.13506,0 0.48534,-0.64082 0.77838,-1.42407 1.21962,-3.25972 -0.20034,-6.74155 -3.38473,-8.29952 -2.12323,-1.0388 -4.82204,-1.02649 -6.98522,0.0318 -5.71786,2.79749 -4.86588,11.39944 1.2762,12.88515 1.25573,0.30374 9.36216,0.28115 9.93927,-0.0277 z m -9.26986,-3.23959 c -1.04942,-0.53115 -1.86003,-1.96305 -1.86003,-3.28578 0,-2.24602 1.36913,-3.7842 3.3683,-3.7842 2.2083,0 3.51087,1.39914 3.51087,3.77116 0,2.07134 -1.47656,3.62936 -3.43959,3.62936 -0.50932,0 -1.22012,-0.1488 -1.57955,-0.33067 z m 27.37643,-35.22258 c 8.64957,-1.34982 17.88807,-4.79833 24.20937,-9.03677 18.23581,-12.22711 28.18916,-33.53177 27.43443,-58.72208 -0.54659,-18.24352 -6.88993,-34.091223 -18.16693,-45.386849 -9.12318,-9.138247 -21.3383,-14.784654 -35.19666,-16.269556 -19.32969,-2.071143 -37.19582,3.807184 -49.883344,16.412656 -10.399656,10.3324 -16.441541,23.512649 -18.253566,39.819789 -0.540849,4.8673 -0.42548,13.55622 0.247393,18.6324 2.66029,20.06929 12.029069,36.22734 26.437047,45.59516 7.57538,4.92539 15.33739,7.75501 24.8503,9.05911 4.57555,0.62725 13.97867,0.57395 18.32196,-0.10386 z"
       id="path9"
       sodipodi:nodetypes="cssscsssssssscsssssccccssssscsssccscccccssscccssssssssssssccsssssssscsssssscccssssssssssssscscccccsssssscssccssssssssssssssscsssssscscccssssccsssssssssss" />
    <path
       style="fill:#b9b9b9;fill-opacity:1;stroke-width:0.264583"
       d="M 119.44502,246.80892 C 105.12941,246.24668 90.535269,243.64125 77.773142,239.36939 59.938321,233.39957 44.978533,224.31561 32.791216,212.05522 13.619778,192.76884 3.070502,168.11369 0.34640998,136.22711 c -0.430569,-5.03998 -0.43842,-18.43581 -0.01365,-23.28333 C 2.523624,87.941713 10.753327,66.419473 25.194282,47.926172 28.704599,43.430811 29.152068,42.921248 33.585617,38.370444 58.383512,12.916707 94.392988,-0.89765966 133.46793,0.05245134 c 14.69508,0.357312 27.94636,2.46716296 40.83548,6.50176996 44.44343,13.9118657 75.33737,48.5502237 83.08975,93.1603907 3.62637,20.867458 2.27332,40.765908 -3.96698,58.340628 -2.87713,8.10294 -6.8018,16.04587 -11.29295,22.85522 -2.16201,3.278 -5.97873,8.17302 -8.37143,10.73656 l -2.23217,2.39155 10.83112,0.14861 c 9.83107,0.13489 11.08114,0.20245 13.53881,0.73173 4.63251,0.99766 7.76747,2.32578 11.05066,4.68156 13.49545,9.68339 13.47425,32.39218 -0.0393,42.09392 -3.99478,2.86798 -9.42991,4.7063 -15.17425,5.13239 -3.87472,0.28739 -124.93525,0.27107 -132.29166,-0.018 z m 53.97415,-18.86201 c 0.65438,-0.31396 1.36875,-0.89826 1.5875,-1.29845 0.3547,-0.64889 0.35384,-0.80631 -0.008,-1.4552 -0.5255,-0.94242 -1.32154,-1.03566 -2.93091,-0.34335 -1.08436,0.46648 -1.46958,0.5148 -2.30707,0.28926 -2.26276,-0.60928 -3.32971,-3.21564 -2.24884,-5.49341 0.8286,-1.74614 2.75712,-2.36627 4.75835,-1.53011 1.21548,0.50787 1.65582,0.49985 2.25346,-0.041 0.63946,-0.5787 0.62833,-1.99518 -0.0203,-2.58218 -0.67127,-0.60749 -2.74742,-1.21327 -4.15819,-1.21327 -1.75473,0 -3.99664,0.96366 -5.25563,2.25907 -2.55759,2.63157 -2.60658,7.06879 -0.10799,9.77945 2.20931,2.39681 5.50948,3.03403 8.43761,1.6292 z m 20.68427,0.20672 c 2.80251,-0.98881 4.45199,-3.44464 4.45199,-6.6284 0,-4.44968 -2.69451,-7.07281 -7.294,-7.10077 -1.86686,-0.0113 -2.32824,0.0866 -3.67817,0.78078 -1.96362,1.00976 -2.91882,2.20591 -3.46239,4.33577 -0.66384,2.6011 -0.1557,4.88477 1.50869,6.7804 1.8971,2.16067 5.39767,2.91756 8.47388,1.83222 z m -4.26045,-3.21609 c -1.83798,-0.95602 -2.60889,-3.19231 -1.78237,-5.17044 0.74502,-1.78308 3.13037,-2.5865 4.92461,-1.65867 0.82276,0.42547 1.86953,2.30037 1.86023,3.3319 -0.009,0.96588 -0.92548,2.79847 -1.62567,3.24971 -1.04696,0.67469 -2.36919,0.77161 -3.3768,0.2475 z m 64.27494,3.00241 c 1.96054,-0.95208 2.94563,-3.59979 2.01147,-5.40629 -0.57229,-1.10667 -1.24828,-1.59395 -3.49935,-2.52253 -2.11945,-0.87427 -2.5857,-1.39616 -1.94114,-2.17276 0.41558,-0.50075 1.31005,-0.48668 2.62985,0.0414 1.27278,0.50927 2.20276,0.33342 2.57019,-0.48599 0.93321,-2.08111 -2.51556,-3.70486 -5.82533,-2.74269 -2.31582,0.67323 -3.35503,1.97784 -3.35304,4.20938 0.003,2.05518 0.85669,2.88007 4.36464,4.21172 1.34583,0.51085 1.5875,0.70154 1.5875,1.25246 0,0.4214 -0.23746,0.78316 -0.67545,1.02899 -0.61616,0.34583 -0.81995,0.31427 -2.32212,-0.35986 -1.37041,-0.615 -1.75522,-0.68951 -2.2938,-0.44413 -1.42129,0.64759 -1.07524,2.70237 0.57092,3.39021 2.28137,0.95319 4.21293,0.95321 6.17566,8e-5 z m -120.3486,0.12097 c 0.55259,-0.44747 0.63541,-0.7692 0.71844,-2.79094 0.0641,-1.5603 0.18998,-2.25504 0.3969,-2.19014 0.16668,0.0523 0.98828,1.09982 1.82578,2.32791 2.21244,3.24427 2.91685,3.69433 4.1806,2.671 0.97613,-0.79042 0.78878,-1.84147 -0.665,-3.73079 l -1.26758,-1.64732 0.93944,-0.77435 c 1.12633,-0.92843 1.6297,-2.27889 1.39546,-3.74378 -0.41249,-2.57957 -2.13515,-3.49479 -6.59139,-3.50188 -4.06099,-0.006 -3.87988,-0.3293 -3.87988,6.91593 0,5.66857 2.6e-4,5.67158 0.64943,6.32071 0.78047,0.78044 1.45899,0.82288 2.2978,0.14365 z m 0.75694,-9.01923 v -1.32291 h 1.07572 c 1.48318,0 2.09928,0.38338 2.09928,1.30635 0,0.61293 -0.15994,0.81431 -0.83323,1.04902 -0.45828,0.15976 -1.17266,0.29046 -1.5875,0.29046 -0.72874,0 -0.75427,-0.0448 -0.75427,-1.32292 z m 74.69113,9.23674 c 0.34798,-0.15857 0.88279,-0.80306 1.18846,-1.43224 l 0.55578,-1.14393 2.57622,0.0431 2.57623,0.0432 0.54723,1.04944 c 0.30098,0.57719 0.87466,1.23203 1.27484,1.45521 0.65342,0.36438 0.80144,0.36446 1.45172,0 1.49014,-0.83357 1.41591,-1.26725 -1.22498,-7.15621 -1.44406,-3.22017 -2.69357,-5.64385 -3.09253,-5.99864 -0.90415,-0.80402 -2.34956,-0.8002 -3.06954,0.008 -0.84609,0.95061 -5.24331,10.78635 -5.24331,11.72898 0,0.56436 0.19195,0.96684 0.59531,1.24822 0.7214,0.50322 1.04145,0.52978 1.86457,0.15476 z m 3.19229,-6.14333 c 0.21929,-0.87371 0.94553,-2.56424 1.10159,-2.56424 0.1173,0 1.44832,2.82652 1.44832,3.07562 0,0.0547 -0.60822,0.0994 -1.3516,0.0994 -1.27967,0 -1.34344,-0.0325 -1.19831,-0.61076 z m 21.37216,5.92603 c 0.61455,-0.49739 0.62462,-0.5823 0.62462,-5.26444 v -4.75891 l 1.49911,-0.10863 c 1.79527,-0.1301 2.33735,-0.51636 2.33735,-1.66558 0,-1.43594 -0.42098,-1.5775 -4.99178,-1.67847 -4.49716,-0.0993 -5.97685,0.1469 -6.26092,1.04194 -0.46318,1.45934 0.73036,2.48321 2.69625,2.31295 l 1.01583,-0.088 0.13229,4.93919 c 0.0728,2.71656 0.19182,4.99076 0.26458,5.05373 0.9304,0.80555 1.86179,0.88061 2.68267,0.21619 z m -112.36996,-0.11039 c 1.0787,-0.78875 0.32369,-2.55905 -1.0914,-2.55905 -0.74268,0 -0.7441,-0.0246 -0.0768,-1.3326 1.19517,-2.34275 0.83063,-5.26888 -0.90971,-7.30207 -2.70243,-3.15719 -8.7152,-3.15953 -11.41583,-0.004 -3.13212,3.65919 -1.63197,9.78548 2.72411,11.12467 1.7217,0.5293 10.06837,0.58627 10.76961,0.0735 z m -9.58957,-3.35957 c -2.24295,-1.3675 -2.12868,-5.26389 0.18952,-6.46269 2.40871,-1.24558 5.05321,0.46514 5.05094,3.26745 -0.002,2.93891 -2.83153,4.66392 -5.24046,3.19524 z m 27.86332,-35.03021 c 13.3888,-2.13577 24.43712,-7.71191 33.39262,-16.85341 12.19577,-12.44908 18.55573,-30.39461 17.99232,-50.76794 -0.69901,-25.277006 -12.42526,-45.566642 -32.17277,-55.667743 -11.02619,-5.640035 -24.86905,-7.821924 -37.86529,-5.968269 -14.49551,2.067496 -27.15727,8.859559 -36.239853,19.439897 -2.691709,3.13558 -5.225904,6.719305 -7.130938,10.084194 -9.446485,16.685451 -11.175662,39.860941 -4.478634,60.025461 5.697969,17.1564 17.695296,30.07977 33.636395,36.23272 4.87642,1.88221 10.99072,3.32413 16.72657,3.94458 2.43903,0.26384 13.57279,-0.06 16.13958,-0.46949 z"
       id="path8"
       sodipodi:nodetypes="cssscsssssssscsssssccsssscssssssssssscssssssscssssssssscssssscsssssssscsscsssscssssscscccsscsscssccsssssssscssssscccsscscscsccsssscsssssssssc" />
    <path
       style="fill:#a3a3a3;fill-opacity:1;stroke-width:0.264583"
       d="m 120.10647,246.81839 c -2.76489,-0.10014 -5.74145,-0.25908 -6.61458,-0.35319 -0.87312,-0.0941 -3.25437,-0.35129 -5.29167,-0.57147 C 95.891139,244.56335 83.680915,241.70265 72.87835,237.61822 50.51159,229.16142 32.52096,215.16481 20.093815,196.55211 8.668331,179.43965 2.15075,159.40167 0.34333098,135.83024 c -0.410557,-5.35427 -0.406083,-17.5806 0.008281,-22.62188 C 1.737997,96.341051 5.91903,81.18141 13.085254,67.038572 25.394133,42.746488 45.259116,24.001283 71.085343,12.307906 97.617424,0.29494434 129.43789,-3.0901897 159.66168,2.8849513 c 30.24973,5.980271 55.87394,21.0332207 73.85104,43.3838287 11.44811,14.233218 19.56217,31.753394 23.25478,50.212505 1.63724,8.184495 2.62826,18.165005 2.63297,26.516665 0.0146,25.67137 -9.83898,51.63993 -26.30299,69.32083 l -1.60142,1.71979 10.84791,0.15903 c 11.62712,0.17046 13.19798,0.33517 17.61564,1.84695 9.37234,3.20735 15.2467,10.41906 16.79282,20.61589 0.48241,3.18141 0.4795,4.77123 -0.0146,8.04953 -1.42232,9.43671 -6.90483,16.54746 -15.40412,19.97898 -2.90308,1.17207 -6.30568,1.90333 -9.99389,2.14772 -4.02606,0.26681 -123.82294,0.25012 -131.23333,-0.0182 z m 52.11959,-18.36798 c 2.46353,-0.57944 3.74998,-2.37149 2.60816,-3.63321 -0.52598,-0.58118 -1.87076,-0.62198 -2.58925,-0.0785 -0.28962,0.21905 -1.08001,0.38846 -1.8124,0.38846 -1.11825,0 -1.42096,-0.12216 -2.17752,-0.87871 -2.71718,-2.71719 0.005,-7.69524 3.42957,-6.27078 0.44515,0.18515 1.16895,0.39111 1.60847,0.45765 1.48637,0.225 2.36981,-1.67042 1.31951,-2.831 -0.75868,-0.83832 -2.90263,-1.40893 -4.73974,-1.26146 -3.15877,0.25356 -5.5954,2.11124 -6.40015,4.87949 -1.25955,4.33271 1.16839,8.5041 5.44939,9.36244 1.38615,0.27794 1.58564,0.26982 3.30396,-0.13433 z m 21.62633,-0.14991 c 1.55916,-0.44956 3.15894,-1.84243 3.99604,-3.47922 1.54538,-3.02176 0.75449,-7.10724 -1.72948,-8.93398 -3.43075,-2.52301 -8.54855,-1.94845 -10.96181,1.23063 -1.97805,2.60578 -1.73857,6.93995 0.51326,9.28913 2.04043,2.12865 4.99486,2.81233 8.18199,1.89344 z m -4.68605,-3.74698 c -1.40158,-1.10249 -1.83353,-3.18701 -1.01698,-4.90776 1.36126,-2.86866 5.60646,-2.36675 6.44907,0.76248 0.44608,1.65664 -0.28558,3.64268 -1.59059,4.31752 -1.15608,0.59783 -2.96565,0.51671 -3.8415,-0.17224 z m 64.9113,3.42527 c 2.49136,-1.17531 3.23093,-4.69093 1.36236,-6.47621 -0.42661,-0.40759 -1.70212,-1.10582 -2.83443,-1.55162 -2.11531,-0.83283 -2.5618,-1.33527 -1.89764,-2.13553 0.3742,-0.45088 1.42192,-0.3846 2.76802,0.17515 2.48269,1.03233 3.66683,-1.66846 1.34704,-3.07235 -0.63095,-0.38184 -1.32646,-0.50523 -2.82173,-0.50061 -3.39989,0.0105 -5.29275,1.53406 -5.29068,4.25842 0.003,2.2493 0.884,3.20148 3.87051,4.17719 1.69256,0.55298 2.37011,1.22311 1.97778,1.95617 -0.15308,0.28601 -0.45341,0.58721 -0.66738,0.66934 -0.47993,0.18415 -1.86111,-0.19523 -2.6915,-0.73935 -0.84188,-0.5516 -1.59258,-0.51009 -2.22581,0.12314 -0.6527,0.6527 -0.68646,1.89743 -0.0661,2.43853 1.76712,1.54143 4.7426,1.82269 7.1696,0.67773 z m -120.20081,-0.0615 c 0.58148,-0.58147 0.64944,-0.87132 0.64944,-2.76984 0,-2.70007 0.26298,-2.64147 2.39858,0.53464 2.05919,3.06242 2.84153,3.48938 4.09573,2.2352 0.35719,-0.35718 0.64944,-0.86648 0.64944,-1.13175 0,-0.2653 -0.59345,-1.30662 -1.31877,-2.3141 l -1.31877,-1.83179 0.88527,-0.72969 c 1.14458,-0.94348 1.58936,-2.04751 1.42224,-3.53026 -0.17372,-1.54128 -0.74431,-2.37255 -2.12124,-3.09039 -0.9653,-0.50325 -1.55451,-0.58623 -4.25142,-0.59872 -4.36921,-0.0202 -4.14523,-0.3934 -4.14523,6.90599 0,5.66857 2.6e-4,5.67158 0.64943,6.32071 0.35719,0.35719 0.89838,0.64942 1.20265,0.64942 0.30427,0 0.84547,-0.29223 1.20265,-0.64942 z m 0.64944,-8.84115 v -1.35734 h 0.90881 c 1.43871,0 2.26619,0.42053 2.26619,1.15167 0,0.8613 -0.56616,1.26892 -1.98452,1.42881 l -1.19048,0.13417 z m 75.06254,9.09288 c 0.31229,-0.21873 0.7052,-0.81405 0.87314,-1.32292 l 0.30535,-0.92522 h 2.72551 2.72551 l 0.342,0.82566 c 0.45285,1.09328 1.26475,1.82017 2.03307,1.82017 0.73695,0 1.92378,-1.09691 1.91934,-1.7739 -0.005,-0.73691 -4.68212,-10.94204 -5.33217,-11.63399 -0.70984,-0.75559 -2.28662,-0.83318 -3.08897,-0.152 -0.77132,0.65483 -5.33407,10.81569 -5.33407,11.87852 0,1.43534 1.5873,2.155 2.83129,1.28368 z m 2.74119,-5.75387 c 0.009,-0.1819 0.28636,-0.92604 0.61651,-1.65365 l 0.60027,-1.32291 0.57412,1.2904 c 0.82563,1.85573 0.77637,2.01689 -0.61651,2.01689 -0.78477,0 -1.18509,-0.11274 -1.17439,-0.33073 z m 21.45185,5.64631 c 0.60861,-0.49228 0.62675,-0.62793 0.70747,-5.29166 l 0.0829,-4.78642 h 1.27689 c 1.55094,0 2.46002,-0.62574 2.46002,-1.69326 0,-1.50615 -0.38672,-1.61403 -5.78547,-1.61403 -4.5517,0 -4.93384,0.0372 -5.28221,0.51359 -0.56875,0.77781 -0.46818,1.90506 0.21249,2.38182 0.35188,0.24646 1.1488,0.41188 1.98437,0.41188 h 1.39634 v 4.7625 c 0,4.40973 0.0392,4.80168 0.52917,5.29167 0.66683,0.66683 1.6117,0.67619 2.41808,0.0238 z m -112.04357,-0.45129 c 0.40604,-0.61971 0.41272,-0.76475 0.064,-1.38906 -0.27449,-0.49141 -0.64542,-0.72194 -1.25709,-0.78124 -0.47724,-0.0462 -0.82443,-0.16531 -0.77154,-0.26458 1.32571,-2.48814 1.53679,-4.33393 0.73826,-6.45575 -2.09584,-5.56902 -10.71208,-5.95186 -13.5914,-0.60389 -0.76081,1.41311 -0.79916,5.07706 -0.0678,6.48229 0.89788,1.72527 2.30283,2.90299 4.12398,3.45697 0.36475,0.11094 2.83332,0.21196 5.48572,0.22445 l 4.82254,0.0228 z m -9.7016,-2.93222 c -2.32592,-1.19777 -2.45472,-5.05732 -0.21436,-6.42323 3.0502,-1.85965 6.31448,1.41083 4.86667,4.87592 -0.71329,1.70715 -2.918,2.44041 -4.65231,1.54731 z m 28.44696,-35.23045 c 15.0335,-2.58911 27.16732,-9.55564 36.24359,-20.80893 7.36054,-9.12604 11.76954,-19.85792 13.80481,-33.60208 0.67201,-4.53808 0.68052,-16.9711 0.0146,-21.29896 -1.6255,-10.5637 -4.30974,-18.523845 -8.7436,-25.929167 -9.41339,-15.722015 -24.49334,-25.349268 -43.30802,-27.648471 -6.85003,-0.837092 -10.66484,-0.803873 -17.72709,0.15436 -8.31807,1.128631 -17.21167,4.445477 -24.054765,8.971159 -14.758556,9.760581 -24.017001,24.998573 -26.928262,44.319829 -0.677556,4.49676 -0.673357,17.41529 0.0071,21.82812 2.163143,14.02832 6.259801,24.15436 13.540761,33.46979 2.136537,2.73354 7.330913,7.79621 10.11133,9.85497 7.736956,5.72883 17.421906,9.6101 27.191546,10.89711 1.16417,0.15336 2.47386,0.32832 2.91042,0.3888 0.43657,0.0605 3.71078,0.0742 7.27604,0.0305 5.07457,-0.0622 7.17272,-0.19839 9.66154,-0.62702 z"
       id="path7"
       sodipodi:nodetypes="cscssssssssscscsssssscccssssssssssccssssssssssscsssssscsscsscccsssssscssssssssccsssccsscccsscsssscscssccccsssssscssccssccssssccsssssssscsssssssssssss" />
    <path
       style="fill:#8c8c8c;fill-opacity:1;stroke-width:0.264583"
       d="m 120.90022,246.81797 c -3.20145,-0.0982 -6.47567,-0.25284 -7.27604,-0.34356 -0.80036,-0.0907 -2.70536,-0.29552 -4.23333,-0.45506 C 95.424877,244.5611 81.839386,241.26876 70.100225,236.49755 52.439116,229.31951 37.940976,218.8523 26.303839,204.87799 9.15472,184.28467 0.09164598,156.53706 0.03504298,124.45315 0.01422298,112.64648 1.168928,102.66293 3.768505,92.173988 9.390697,69.489201 21.301042,49.372276 38.350226,33.764445 57.549197,16.188568 83.030029,4.7360313 110.58147,1.2996103 c 13.49343,-1.68300196 26.03194,-1.68459396 39.23606,-0.005 25.70467,3.269723 48.71228,12.9680197 67.43303,28.4247367 3.4474,2.846329 11.65768,10.992196 14.41354,14.300456 9.67417,11.613293 16.70769,24.275021 21.38994,38.506075 6.45951,19.632752 8.00325,42.052602 4.21685,61.241842 -3.55587,18.02092 -12.36138,35.83303 -23.80523,48.15416 l -1.96596,2.11667 10.71381,0.15655 c 11.66315,0.17043 13.54227,0.37832 18.05167,1.99705 9.61528,3.45158 15.36076,10.91864 16.61443,21.59274 0.72586,6.18011 -0.89503,12.80039 -4.44256,18.14494 -4.26765,6.42954 -11.79113,10.26896 -21.36183,10.90152 -4.20192,0.27774 -121.07758,0.26567 -130.175,-0.0135 z m 52.36955,-18.6236 c 2.32699,-0.97229 2.6914,-3.21074 0.6405,-3.93433 -0.23968,-0.0846 -0.86433,0.0759 -1.3881,0.35666 -0.54544,0.29234 -1.47273,0.51041 -2.17036,0.51041 -1.02598,0 -1.35615,-0.13811 -2.09389,-0.87585 -1.73329,-1.73329 -1.4177,-4.56234 0.66418,-5.95381 1.00004,-0.66842 2.07081,-0.68178 3.59136,-0.0448 1.1575,0.48488 2.11685,0.16987 2.45736,-0.80692 0.59842,-1.71665 -0.87588,-2.87053 -3.96281,-3.10156 -2.18986,-0.16389 -3.96871,0.38365 -5.49739,1.69214 -1.74986,1.49781 -2.27014,2.7303 -2.27389,5.38663 -0.003,2.0297 0.0769,2.39083 0.81804,3.70417 0.94431,1.67336 2.40806,2.82318 4.25147,3.33968 1.43602,0.40235 3.63782,0.28149 4.96353,-0.27242 z m 21.296,-0.17865 c 2.61153,-1.1548 4.0468,-3.43484 4.05769,-6.44601 0.0109,-3.01197 -1.10966,-5.03381 -3.51559,-6.34328 -1.80532,-0.98258 -4.27318,-1.20163 -6.44024,-0.57165 -5.60566,1.62961 -6.65845,9.36121 -1.75055,12.85593 1.88663,1.3434 5.25039,1.56549 7.64869,0.50501 z m -5.64129,-3.80595 c -2.53532,-2.53531 -0.60392,-6.86882 2.85461,-6.40492 1.39761,0.18745 2.79352,1.60784 2.83688,2.8866 0.10475,3.08959 -0.98141,4.43566 -3.57921,4.43566 -1.01071,0 -1.33637,-0.14142 -2.11228,-0.91734 z m 65.20956,3.81955 c 1.29294,-0.65963 2.13876,-1.87076 2.29894,-3.29189 0.27726,-2.4598 -0.72488,-3.67813 -4.02611,-4.89474 -1.45597,-0.53655 -1.87912,-0.81285 -1.94503,-1.26997 -0.1388,-0.96306 0.98131,-1.30252 2.44867,-0.74213 1.59297,0.60836 2.56955,0.47199 2.99413,-0.41812 0.76131,-1.59605 -0.6689,-2.8399 -3.52941,-3.06952 -1.36819,-0.10982 -1.87526,-0.0209 -3.11386,0.54617 -2.45388,1.12342 -3.32578,3.24063 -2.23753,5.43337 0.62797,1.26532 0.80275,1.387 4.31597,3.00482 1.0293,0.47397 1.30333,0.72662 1.23465,1.13834 -0.0485,0.29104 -0.19182,0.63675 -0.31843,0.76822 -0.38954,0.40457 -1.80954,0.22122 -2.73997,-0.35383 -1.06222,-0.65648 -1.69323,-0.68797 -2.49748,-0.12467 -0.85069,0.59587 -0.70964,2.10405 0.2645,2.82821 1.7072,1.26913 4.83772,1.4728 6.85096,0.44574 z m -120.25721,-0.11205 c 0.57477,-0.57478 0.64944,-0.879 0.64944,-2.64583 0,-1.47987 0.0906,-1.99641 0.35017,-1.99641 0.1926,0 0.92837,0.8632 1.63507,1.91823 1.72396,2.5737 2.49102,3.37343 3.23566,3.37343 0.75118,0 1.92285,-1.10029 1.92285,-1.80573 0,-0.27876 -0.58164,-1.30466 -1.29253,-2.27978 l -1.29252,-1.77292 1.09408,-1.02055 c 1.06546,-0.99383 1.09409,-1.06553 1.09409,-2.73992 0,-2.02408 -0.50967,-2.91779 -2.13374,-3.7415 -0.86288,-0.43765 -1.56886,-0.5283 -4.12111,-0.52917 -4.46408,-0.002 -4.19619,-0.44326 -4.19619,6.91913 0,5.55934 0.0316,5.94367 0.52917,6.44128 0.71509,0.71509 1.73896,0.66635 2.52556,-0.12026 z m 0.64944,-8.83962 v -1.35887 h 0.99946 c 1.15741,0 2.17554,0.61097 2.17554,1.30553 0,0.69982 -0.55186,1.05267 -1.94493,1.24362 l -1.23007,0.16859 z m 75.06254,9.09135 c 0.31229,-0.21873 0.7052,-0.81405 0.87314,-1.32292 l 0.30535,-0.92522 h 2.73709 2.73709 l 0.30535,0.92522 c 0.34587,1.04802 1.14941,1.72061 2.05554,1.72061 0.74879,0 1.91348,-1.10601 1.91348,-1.81708 0,-0.73818 -4.63345,-10.90169 -5.27886,-11.57923 -0.72876,-0.76503 -1.70372,-0.90553 -2.72282,-0.39238 -0.74248,0.37386 -1.1597,1.10482 -3.33978,5.85119 -1.37022,2.98318 -2.4944,5.76993 -2.49819,6.19279 -0.0127,1.42192 1.68482,2.20699 2.91261,1.34702 z m 2.74119,-5.75387 c 0.009,-0.1819 0.28875,-0.92604 0.62181,-1.65365 l 0.60556,-1.32291 0.44421,1.04288 c 0.24433,0.57362 0.5132,1.31776 0.59751,1.65365 0.14351,0.57179 0.0755,0.61076 -1.06602,0.61076 -0.80771,0 -1.21382,-0.11165 -1.20307,-0.33073 z m 21.55933,5.50214 c 0.64017,-0.64018 0.64944,-0.71567 0.64944,-5.29166 v -4.64225 h 1.43599 c 1.23622,0 1.51231,-0.097 1.98438,-0.69715 0.71049,-0.90321 0.6913,-1.30065 -0.10104,-2.093 -0.63834,-0.63832 -0.72549,-0.64937 -5.09325,-0.64553 -5.16944,0.005 -5.72388,0.15916 -5.84733,1.63069 -0.10449,1.24553 0.63583,1.80499 2.38845,1.80499 0.69523,0 1.26412,0.0893 1.26421,0.19844 9e-5,0.10914 0.0299,2.26293 0.0661,4.78618 0.0642,4.46442 0.0828,4.60131 0.6906,5.09323 0.84946,0.68744 1.78348,0.63497 2.5624,-0.14394 z M 121.607,227.86417 c 0.95735,-0.8664 0.23069,-2.47253 -1.11865,-2.47253 -0.42832,0 -0.77875,-0.0527 -0.77875,-0.11715 0,-0.0645 0.26789,-0.57047 0.59531,-1.12448 0.8355,-1.41375 0.83702,-4.49617 0.003,-6.07214 -2.66495,-5.03558 -10.69186,-5.03558 -13.3704,0 -0.78397,1.47386 -0.83644,5.11929 -0.0939,6.52002 0.92064,1.73657 2.31705,2.90457 4.13298,3.45697 0.36475,0.11094 2.79692,0.21196 5.40484,0.22445 4.06201,0.0196 4.81102,-0.04 5.22552,-0.41514 z m -9.37855,-3.12338 c -1.85963,-0.97004 -2.51278,-2.9247 -1.65959,-4.96667 1.25911,-3.0135 5.77869,-2.48293 6.38511,0.74956 0.58341,3.10986 -2.15804,5.55636 -4.72552,4.21711 z m 25.92229,-34.9479 c 27.23221,-3.56863 46.58412,-22.59609 51.78824,-50.91999 1.74262,-9.48435 1.5869,-21.68906 -0.39498,-30.95625 C 185.43214,88.689721 174.24164,73.673747 158.20647,65.866417 142.29821,58.120875 122.85965,57.50406 106.21585,64.216674 94.011936,69.138641 83.368545,78.912312 76.98639,91.057663 c -3.965503,7.546422 -6.388044,15.591037 -7.450844,24.742287 -0.579704,4.99156 -0.372686,15.60191 0.403715,20.69175 3.838014,25.16075 17.590336,42.96517 38.921949,50.39021 4.21555,1.46734 10.20419,2.79538 14.15568,3.13917 3.24455,0.28228 12.27799,0.1461 15.13385,-0.22814 z"
       id="path6"
       sodipodi:nodetypes="csscssssscssssscsssssccsssssssssscssssssssssssssssscssssssssssssssssssscssscscsccsssccsscccsssssssscscssscsscssscssscssssssscssscssssscssssssssscc" />
    <path
       style="fill:#767676;fill-opacity:1;stroke-width:0.264583"
       d="M 121.2971,246.80868 C 91.933211,245.81229 65.674283,237.55237 45.758559,223.04759 28.170565,210.23811 15.521426,193.28318 7.926881,172.33793 3.860246,161.12243 1.227145,148.06766 0.37662298,134.9042 c -0.317566,-4.91496 -0.392232,-15.51071 -0.136107,-19.31459 C 1.431617,97.899933 5.542401,82.242842 12.813974,67.70003 13.79626,65.735499 14.836732,63.711436 15.12613,63.202113 26.364482,43.423361 41.700388,28.177315 61.380406,17.218864 92.629184,-0.18143466 132.66054,-4.6467417 169.31897,5.1788273 c 17.60271,4.718058 34.49911,13.3870697 48.02188,24.6385127 6.46296,5.377421 14.39492,13.855642 19.35205,20.684773 11.69103,16.10604 19.19811,35.532086 21.62519,55.959377 2.52232,21.22892 0.10768,40.11842 -7.40051,57.89354 -4.38949,10.39176 -11.15959,20.9691 -17.93633,28.02297 -0.80021,0.83294 -1.39269,1.57668 -1.31662,1.65275 0.0761,0.0761 4.77223,0.18081 10.4359,0.23276 8.30098,0.0761 10.78497,0.1831 12.81115,0.55166 8.50257,1.54658 14.86284,5.69427 18.44683,12.02968 4.5362,8.01859 4.85487,17.52553 0.86561,25.82288 -1.55149,3.227 -3.38206,5.68868 -5.67989,7.63808 -4.71165,3.99716 -10.25707,6.0385 -17.73359,6.5279 -4.34356,0.28435 -121.06126,0.26178 -129.51354,-0.0251 z m 52.32897,-18.8129 c 1.93602,-0.96047 2.26364,-2.96821 0.597,-3.65856 -0.68967,-0.28567 -0.91269,-0.25603 -1.73828,0.23109 -1.96656,1.1603 -4.16855,0.48771 -4.97126,-1.51844 -0.76839,-1.92043 -0.19013,-3.78968 1.48909,-4.81357 1.03464,-0.63087 1.55596,-0.64481 3.122,-0.0836 1.52676,0.54716 2.54231,0.32956 2.9042,-0.62227 0.65253,-1.71629 -0.98428,-3.01506 -4.03409,-3.20096 -3.15346,-0.19222 -5.82323,1.20905 -7.17922,3.76812 -0.86641,1.63512 -0.82561,5.11132 0.0807,6.87453 1.73191,3.36942 6.22095,4.76443 9.72987,3.02364 z m 19.95453,0.4028 c 1.90776,-0.53531 3.76334,-2.09167 4.51134,-3.78389 0.37625,-0.85122 0.53631,-1.79276 0.54256,-3.19175 0.0187,-4.18396 -2.50791,-6.80887 -6.82029,-7.08562 -3.32173,-0.21318 -5.968,1.13812 -7.36383,3.76029 -0.81937,1.53926 -0.82048,5.10939 -0.002,6.64662 1.78824,3.35883 5.24938,4.74382 9.13228,3.65435 z m -4.17942,-3.77338 c -1.60806,-0.9806 -2.05667,-3.51243 -0.95341,-5.38078 1.02106,-1.72916 3.69271,-1.97729 5.18816,-0.48184 0.76027,0.76026 0.81846,0.95123 0.81846,2.68579 0,1.81845 -0.0259,1.89103 -0.9883,2.77302 -0.80285,0.73575 -1.20004,0.90553 -2.11667,0.90474 -0.63914,0 -1.48384,-0.21775 -1.94824,-0.50093 z m 63.52613,3.91403 c 2.25266,-0.61532 3.57187,-2.21755 3.57187,-4.33816 0,-2.26462 -0.8359,-3.15323 -4.10104,-4.35975 -1.4474,-0.53483 -1.87047,-0.81204 -1.9363,-1.2686 -0.0598,-0.41503 0.11062,-0.67302 0.58846,-0.89072 0.55065,-0.2509 0.92586,-0.20974 2.06859,0.22693 1.61211,0.61603 2.42522,0.45337 2.89573,-0.5793 1.39954,-3.07162 -6.16532,-4.25294 -8.47023,-1.32271 -1.29562,1.64709 -1.27305,4.13436 0.0488,5.37612 0.3437,0.3229 1.56544,0.97505 2.71495,1.44923 1.94484,0.80225 2.09002,0.91649 2.09002,1.64463 0,0.70882 -0.0906,0.79007 -0.96245,0.86286 -0.62132,0.0519 -1.27778,-0.11192 -1.85208,-0.46205 -1.61721,-0.98597 -3.1386,-0.43127 -3.1386,1.14433 0,1.12149 0.87641,1.94871 2.55236,2.40913 1.62293,0.44588 2.59535,0.4726 3.92994,0.10806 z m -133.66401,-0.1342 c 1.23541,-0.10408 2.22022,-0.32713 2.4474,-0.55433 0.88821,-0.8882 0.0908,-2.45901 -1.24836,-2.45901 -0.41401,0 -0.75224,-0.0298 -0.75163,-0.0661 5.3e-4,-0.0364 0.29826,-0.65188 0.66146,-1.36777 2.28811,-4.51008 -1.31541,-9.67859 -6.74799,-9.67859 -5.31877,0 -8.72027,4.78663 -6.99652,9.84557 0.4766,1.39875 1.95891,3.01247 3.29236,3.58426 1.70289,0.73017 5.54259,1.01621 9.34328,0.69601 z m -6.61096,-3.45416 c -1.58404,-0.33009 -2.78218,-2.75799 -2.24531,-4.54991 1.12079,-3.74085 6.06567,-3.37505 6.58368,0.48702 0.15661,1.16761 -0.62998,3.10169 -1.47459,3.62572 -0.60888,0.37777 -2.07485,0.60156 -2.86378,0.43717 z m 21.34476,3.08666 c 0.44097,-0.44098 0.52917,-0.88194 0.52917,-2.64584 0,-1.61877 0.0855,-2.11666 0.36351,-2.11666 0.19994,0 1.00361,0.97536 1.78594,2.16749 1.72417,2.62729 2.23022,3.12417 3.1818,3.12417 0.85189,0 1.8125,-0.90537 1.8125,-1.70825 0,-0.55015 -0.8562,-1.98507 -2.04003,-3.41892 l -0.62876,-0.76153 0.90796,-0.61698 c 1.56685,-1.06471 2.01482,-3.75904 0.90003,-5.41328 -1.01254,-1.50251 -2.03722,-1.91388 -5.10735,-2.05043 -5.07203,-0.22558 -4.87977,-0.50046 -4.87977,6.97683 0,5.58146 0.0315,5.96569 0.52917,6.4634 0.29398,0.29398 0.88194,0.52916 1.32291,0.52916 0.44098,0 1.02894,-0.23518 1.32292,-0.52916 z m 0.52917,-9.03026 v -1.35731 l 1.21789,0.13726 c 1.41815,0.15987 2.08701,0.69295 1.8412,1.46744 -0.17861,0.56274 -1.38013,1.10995 -2.43712,1.10995 -0.57208,0 -0.62197,-0.10888 -0.62197,-1.35734 z m 75.39279,8.85497 c 0.30477,-0.38743 0.62397,-0.98274 0.70935,-1.32292 0.15014,-0.59822 0.24454,-0.61846 2.88415,-0.61846 h 2.72892 l 0.30535,0.92522 c 0.35455,1.07429 1.15311,1.72061 2.12592,1.72061 0.91701,0 1.84442,-0.90651 1.83761,-1.79625 -0.003,-0.3945 -1.11292,-3.15807 -2.46645,-6.14125 -2.31274,-5.0973 -2.52128,-5.45397 -3.4626,-5.92238 -0.9349,-0.46522 -1.06078,-0.47024 -1.88919,-0.0752 -0.55942,0.26677 -1.09943,0.83859 -1.4607,1.54674 -1.23656,2.42384 -4.73849,10.33118 -4.73849,10.69945 0,0.21453 0.29225,0.68229 0.64944,1.03947 0.88684,0.88683 2.05401,0.86371 2.77669,-0.055 z m 2.39471,-5.34704 c 0,-0.12685 0.2758,-0.85559 0.61291,-1.61944 l 0.61291,-1.38877 0.57771,1.39012 c 0.31774,0.76459 0.57772,1.49334 0.57772,1.61946 0,0.1261 -0.53579,0.22929 -1.19063,0.22929 -0.65484,0 -1.19062,-0.1038 -1.19062,-0.23066 z m 21.67662,5.35434 c 0.50696,-0.64447 0.54838,-1.04412 0.54838,-5.29166 v -4.59452 l 1.38906,-0.008 c 0.76398,-0.005 1.58953,-0.16081 1.83454,-0.34708 0.75271,-0.57221 0.84166,-1.56709 0.21172,-2.36793 l -0.56333,-0.7161 h -4.68441 c -5.34798,0 -5.8605,0.1504 -5.8605,1.71979 0,1.1671 0.77731,1.71979 2.41869,1.71979 h 1.24262 l 0.0876,4.78631 c 0.0853,4.66082 0.10395,4.79957 0.7122,5.29167 0.9013,0.72919 2.00132,0.65 2.66346,-0.1918 z M 133.86481,190.20359 c 19.81115,-1.3823 35.6821,-10.274 46.04795,-25.79835 6.08386,-9.11146 9.64729,-19.59147 10.98536,-32.30783 0.46653,-4.43365 0.18836,-15.2144 -0.50526,-19.58192 -2.29058,-14.423191 -7.74078,-26.063469 -16.44368,-35.119624 -10.86376,-11.304733 -24.41945,-17.059823 -41.96181,-17.814951 -8.09298,-0.348369 -17.85398,1.400963 -25.77152,4.618685 -17.203301,6.991491 -30.18886,22.484448 -34.912421,41.65371 -1.808263,7.33833 -2.239492,11.64798 -2.054617,20.53365 0.191085,9.18395 1.28918,15.99616 3.782645,23.46619 7.86003,23.54743 27.352853,38.64816 52.045763,40.3189 4.65489,0.31495 4.72231,0.31519 8.78759,0.0315 z"
       id="path5"
       sodipodi:nodetypes="cssssscssssssssssssssccsssssssssssscsssscccssssscssssssssssssssssssccscssssccsssssssssssscsssssssscssssssscssssssssssssscsssscsccsscssscsscccsssssssssscc" />
    <path
       style="fill:#606060;fill-opacity:1;stroke-width:0.264583"
       d="m 122.00193,246.80371 c -30.666789,-1.01608 -56.508632,-9.25716 -77.612756,-24.75108 -6.645423,-4.87884 -16.4269,-14.52958 -20.326448,-20.05477 -0.291042,-0.41237 -0.780497,-1.06222 -1.087681,-1.44411 -1.327023,-1.64977 -4.690954,-6.78844 -6.592461,-10.07052 C 7.147406,174.54297 1.796742,155.82882 0.38114198,134.51761 c -0.317495,-4.77972 -0.38581,-14.2752 -0.133607,-18.57058 C 1.007085,103.01076 3.856135,89.554771 8.278116,78.018779 17.954857,52.77427 35.998628,31.824279 59.874246,18.112325 78.9758,7.1421523 101.11464,1.0083643 124.26726,0.27159834 c 21.93288,-0.697955 40.78785,2.40044496 59.49542,9.77676366 15.70521,6.192504 29.38949,15.098463 41.00488,26.686676 10.71855,10.693453 18.48354,22.091663 24.51953,35.992075 8.67611,19.980402 11.9476,44.531217 8.79655,66.013537 -1.43902,9.81056 -4.68172,20.5412 -8.87495,29.36875 -4.05323,8.53283 -9.37794,16.6589 -15.05327,22.97285 -1.41614,1.57548 -2.50156,2.93774 -2.41205,3.02724 0.0895,0.0895 3.58282,0.13313 7.76292,0.0969 11.40997,-0.0988 16.14014,0.39202 21.11865,2.1913 7.62044,2.75408 12.9274,8.52902 15.33831,16.69084 0.99963,3.38414 1.20161,9.42819 0.43765,13.09687 -2.13892,10.27152 -8.8437,17.15805 -19.22888,19.75012 -2.46658,0.61563 -3.33103,0.67931 -12.04992,0.88746 -11.50888,0.27477 -114.73322,0.25855 -123.12017,-0.0193 z m 51.62414,-18.80793 c 1.36331,-0.67636 1.84318,-1.51797 1.54436,-2.70857 -0.27782,-1.10691 -1.35575,-1.38478 -2.74968,-0.70882 -1.33101,0.64545 -2.12774,0.68644 -3.35728,0.17269 -1.17208,-0.48971 -1.72887,-1.60848 -1.72887,-3.47374 0,-1.34024 0.0909,-1.58567 0.87871,-2.37352 1.19216,-1.19216 2.39612,-1.39385 3.98895,-0.66823 1.07229,0.48847 1.32819,0.51747 1.94757,0.22061 0.3922,-0.18799 0.83098,-0.67702 0.97509,-1.08678 0.65717,-1.86866 -1.65199,-3.22742 -5.14449,-3.02712 -4.36871,0.25055 -6.88802,2.93587 -6.87335,7.3262 0.0114,3.42249 2.06054,6.04338 5.41814,6.93002 1.32889,0.35095 3.75684,0.064 5.10085,-0.60274 z m 21.09185,0.0422 c 4.42138,-2.14035 5.4739,-8.30136 1.99457,-11.67543 -1.68066,-1.62982 -3.35234,-2.18889 -6.06105,-2.02705 -4.0134,0.23979 -6.5421,2.62662 -6.85029,6.46597 -0.3878,4.83124 3.03498,8.23195 7.96177,7.91043 1.07796,-0.0704 2.26962,-0.34213 2.955,-0.67392 z m -5.19198,-3.3564 c -1.2301,-0.76343 -1.65491,-1.8402 -1.58313,-4.01275 0.0378,-1.14226 1.4189,-2.57479 2.71732,-2.81837 1.26134,-0.23661 2.71642,0.40672 3.40618,1.50598 0.43685,0.69623 0.52896,1.19568 0.44916,2.43552 -0.0901,1.39912 -0.20012,1.65111 -1.06904,2.4474 -0.78704,0.72128 -1.18019,0.88638 -2.09701,0.88066 -0.6206,-0.004 -1.44116,-0.20116 -1.82348,-0.43844 z m 63.40137,3.8576 c 2.25266,-0.61532 3.57187,-2.21755 3.57187,-4.33816 0,-2.24716 -0.81134,-3.19204 -3.68141,-4.28731 -2.07243,-0.79089 -2.76389,-1.41176 -2.20009,-1.97556 0.44135,-0.44136 1.92087,-0.36563 2.91653,0.14925 1.55218,0.80264 3.17439,-0.57312 2.47801,-2.10152 -0.70591,-1.54928 -4.56182,-2.23461 -6.78908,-1.20666 -3.82281,1.76433 -3.53354,6.54295 0.47535,7.85298 2.39212,0.78168 2.87441,1.11363 2.78191,1.91468 -0.11189,0.96922 -1.22838,1.07998 -2.91648,0.28932 -1.42856,-0.6691 -2.39755,-0.53194 -2.98913,0.42315 -0.49636,0.80132 -0.0225,2.15408 0.92665,2.64486 1.65899,0.85788 3.72478,1.09963 5.42587,0.63497 z M 121.1587,228.25676 c 0.37414,-0.17047 0.75204,-0.59597 0.83978,-0.94557 0.20807,-0.82902 -0.29832,-1.91839 -0.89415,-1.92354 -1.03706,-0.009 -1.17479,-0.36849 -0.61438,-1.60375 1.04491,-2.30322 0.48379,-5.5771 -1.25366,-7.31454 -0.51487,-0.51488 -1.58366,-1.23259 -2.37509,-1.59491 -1.25871,-0.57626 -1.70899,-0.64395 -3.59476,-0.54041 -3.06235,0.16815 -5.24092,1.43463 -6.43952,3.74354 -0.5482,1.056 -0.75922,4.20507 -0.37659,5.6197 0.62828,2.3228 2.6804,4.10966 5.31175,4.62518 1.63433,0.32017 8.65748,0.27106 9.39662,-0.0657 z m -8.42899,-3.40355 c -3.19798,-0.95665 -3.24254,-5.65409 -0.0651,-6.8581 2.46982,-0.93585 4.9838,1.7559 4.17164,4.46667 -0.31009,1.03497 -1.60986,2.40075 -2.28473,2.40075 -0.19521,0 -0.5135,0.0492 -0.7073,0.10935 -0.1938,0.0601 -0.69535,0.007 -1.11455,-0.11867 z m 21.26739,3.18432 c 0.44097,-0.44098 0.52917,-0.88194 0.52917,-2.64584 0,-1.53066 0.0927,-2.11666 0.33479,-2.11666 0.18414,0 0.98782,0.98036 1.78594,2.17855 0.79813,1.19822 1.6595,2.38884 1.91416,2.64583 0.61908,0.62476 1.92435,0.59346 2.57969,-0.0619 0.85473,-0.85474 0.65665,-1.8106 -0.76641,-3.6983 l -1.29204,-1.71391 0.7518,-0.4572 c 1.06093,-0.64519 1.57123,-1.79533 1.57123,-3.54129 0,-1.38155 -0.0785,-1.57798 -0.99815,-2.49763 -1.2454,-1.24539 -2.42883,-1.58207 -5.56768,-1.58395 -2.33859,-0.001 -3.37778,0.24322 -3.81501,0.89803 -0.10691,0.16012 -0.19621,2.99305 -0.19844,6.29539 -0.004,5.9069 0.005,6.01094 0.58399,6.41615 0.81033,0.56758 1.95394,0.51572 2.58696,-0.11729 z m 0.70556,-7.84932 c -0.097,-0.097 -0.17639,-0.70781 -0.17639,-1.35731 v -1.18094 l 1.21789,0.13726 c 1.42937,0.16114 2.08738,0.69178 1.83679,1.48133 -0.22157,0.6981 -2.40289,1.39509 -2.87829,0.91966 z m 75.16412,7.78317 c 0.30562,-0.32742 0.63694,-0.92273 0.73626,-1.32292 l 0.18059,-0.7276 h 2.72076 c 2.63105,0 2.72588,0.0204 2.87598,0.61846 0.0854,0.34018 0.40458,0.93549 0.70935,1.32292 1.06582,1.35498 3.42613,0.63807 3.42613,-1.04063 0,-0.3777 -0.72843,-2.31246 -1.61873,-4.29948 -3.70452,-8.26784 -3.59434,-8.09862 -5.27273,-8.09862 -1.28214,0 -1.99627,0.63163 -2.82825,2.50152 -0.35611,0.80036 -0.9471,2.11005 -1.31329,2.91041 -2.1548,4.70951 -2.98992,6.6584 -2.98992,6.97744 0,0.19775 0.24677,0.67325 0.54837,1.05666 0.71037,0.9031 2.03307,0.95078 2.82548,0.10184 z m 2.69463,-6.08542 c 0.12901,-0.32742 0.40604,-0.99411 0.61564,-1.48156 l 0.38109,-0.88625 0.46517,1.15084 c 0.25585,0.63296 0.52439,1.29966 0.59675,1.48156 0.0937,0.23561 -0.21713,0.33073 -1.08081,0.33073 -1.1504,0 -1.20039,-0.0304 -0.97784,-0.59532 z m 21.33147,6.30569 c 0.47094,-0.34391 0.52045,-0.78338 0.5961,-5.29167 l 0.0825,-4.91662 h 1.43883 c 1.50678,0 2.49719,-0.58407 2.49719,-1.4726 0,-0.50928 -0.5059,-1.50168 -0.8995,-1.7645 -0.16012,-0.10691 -2.42487,-0.1962 -5.03279,-0.19843 -5.26572,-0.005 -5.70937,0.12525 -5.70937,1.66977 0,1.26403 0.65066,1.76576 2.28996,1.76576 h 1.41421 v 4.59452 c 0,4.24754 0.0414,4.64719 0.54837,5.29166 0.6251,0.79471 1.92126,0.94517 2.77449,0.32211 z m -96.19161,-38.27073 c 10.83029,-1.22789 22.0354,-5.80771 30.27392,-12.37375 12.66897,-10.09707 20.661,-25.52906 22.79036,-44.00643 0.61479,-5.33483 0.41482,-16.61483 -0.38072,-21.47593 -1.70625,-10.4259 -4.98814,-19.090924 -10.2394,-27.034572 -1.05818,-1.600729 -2.14121,-3.148542 -2.40674,-3.439584 -0.26552,-0.291041 -0.82039,-0.945885 -1.23303,-1.455208 -1.31248,-1.619967 -4.99739,-5.279424 -7.18669,-7.13704 -6.77877,-5.751782 -15.9122,-10.07651 -25.4,-12.027027 -10.76816,-2.213736 -21.35442,-1.850048 -31.6177,1.086221 -1.23693,0.353877 -2.66568,0.806093 -3.175,1.004924 -4.05309,1.582254 -5.49645,2.216859 -7.84363,3.448611 -15.684991,8.231187 -26.677992,23.285106 -30.622482,41.934725 -3.862605,18.26246 -0.72916,39.19903 8.073337,53.94318 4.486857,7.51547 10.403549,13.74892 17.428188,18.36123 5.705827,3.74639 13.356757,6.87808 20.108337,8.23079 2.87556,0.57612 4.68116,0.82448 9.65729,1.32833 1.66113,0.1682 8.99964,-0.0739 11.77396,-0.38847 z"
       id="path4"
       sodipodi:nodetypes="ssssssscssssssssscsssssssssssscssssssssssscsscsscscssssssssssssssssssssssssscsssccssssssscssscsscssssccsssscsscsssssssssscsssssscssscsscsssscssssssssssssssssc" />
    <path
       style="fill:#494949;fill-opacity:1;stroke-width:0.264583"
       d="m 117.98981,246.64242 c -3.59737,-0.19138 -10.86575,-0.93745 -15.08125,-1.548 C 68.844651,240.16076 41.33195,224.94841 23.490178,201.18232 11.919997,185.77029 4.581842,167.25073 1.598157,145.93265 0.43037098,137.58895 0.25022598,134.70066 0.25022598,124.32086 c 0,-9.79262 0.159981,-12.60622 1.08181502,-19.02601 C 5.698807,74.884025 20.066401,48.816884 42.848142,29.972135 63.317251,13.040365 88.933545,3.0134323 117.80732,0.63101634 c 6.2642,-0.516869 18.10629,-0.517943 24.56949,-0.0021 23.75711,1.89563396 45.34039,8.98924996 63.58696,20.89864866 1.81901,1.187254 4.14072,2.782186 5.15937,3.544294 1.01865,0.762109 2.20383,1.646264 2.63374,1.964788 4.9361,3.657217 12.74056,11.067039 17.31525,16.439695 14.65592,17.212334 23.81246,38.041259 26.99092,61.397778 1.41579,10.4037 1.47114,23.78446 0.13624,32.94062 -1.71948,11.79397 -4.94078,22.10148 -10.17458,32.55674 -4.09752,8.18537 -9.45727,16.02928 -14.69228,21.50193 -1.08803,1.13742 -1.90953,2.17922 -1.82555,2.3151 0.0902,0.1459 4.29014,0.24921 10.25739,0.25231 12.38864,0.006 15.09112,0.34263 20.11085,2.50189 3.40693,1.4655 4.94112,2.51826 7.72094,5.29808 2.85964,2.85963 4.1334,4.77311 5.45473,8.19413 2.58759,6.69962 2.35254,15.55033 -0.57799,21.76219 -1.32733,2.81361 -2.98026,5.13043 -5.09013,7.1346 -3.78383,3.59426 -7.26048,5.39512 -13.28036,6.87903 -1.72771,0.4259 -6.37442,0.45855 -69.18854,0.48641 -37.03506,0.0164 -68.05084,-0.008 -68.92396,-0.0546 z m 54.50416,-18.10319 c 1.36605,-0.37314 2.71438,-1.39634 2.83941,-2.15471 0.14244,-0.86397 -0.50087,-2.01859 -1.2261,-2.20062 -0.38397,-0.0964 -1.043,0.0556 -1.70444,0.39304 -1.28062,0.65333 -2.17294,0.69339 -3.32009,0.14901 -2.619,-1.24278 -2.27659,-5.77284 0.50565,-6.6897 0.92737,-0.30562 1.20237,-0.28332 2.46492,0.19984 1.20906,0.46268 1.52468,0.49416 2.11535,0.21108 0.90408,-0.43333 1.30216,-1.53697 0.88479,-2.45302 -0.43567,-0.95618 -2.38329,-1.76749 -4.28607,-1.78541 -3.03246,-0.0286 -5.35216,1.13069 -6.73419,3.36536 -0.68553,1.10847 -0.81271,1.6015 -0.89121,3.45496 -0.0757,1.78665 0.0111,2.40062 0.49989,3.53684 1.39298,3.23808 5.23328,4.96184 8.85209,3.97333 z m 22.28225,-0.46342 c 1.35674,-0.69215 2.5774,-1.90796 3.32324,-3.30999 0.78249,-1.47098 0.83472,-5.11778 0.0933,-6.51788 -1.58306,-2.98965 -5.01231,-4.60525 -8.40807,-3.96126 -3.83863,0.72798 -6.04595,3.32957 -6.04595,7.12589 0,3.47147 1.91223,6.16469 5.06398,7.13219 1.39711,0.42889 4.72581,0.16756 5.97347,-0.46895 z m -5.2699,-3.40609 c -1.14978,-0.71315 -1.62613,-1.87033 -1.48256,-3.60158 0.14556,-1.75525 0.82922,-2.66653 2.34013,-3.1192 0.81188,-0.24323 1.15939,-0.20556 2.15157,0.23333 3.43723,1.52046 2.36643,6.94656 -1.36836,6.93389 -0.50932,-0.003 -1.24768,-0.20262 -1.64078,-0.44644 z m 30.6788,3.18591 c 0.1819,-0.24662 0.33073,-0.77846 0.33073,-1.18187 0,-0.85662 -4.54663,-10.97337 -5.24585,-11.67259 -0.26088,-0.26088 -0.89735,-0.54298 -1.41438,-0.62688 -1.57744,-0.25598 -2.2573,0.65212 -4.97042,6.63905 -1.31574,2.90341 -2.39227,5.55255 -2.39227,5.88698 0,0.89921 0.90485,1.66637 1.96548,1.66637 1.02622,0 1.645,-0.5049 2.17587,-1.77543 l 0.36367,-0.8704 h 2.62126 2.62126 l 0.17277,0.78661 c 0.095,0.43262 0.52064,1.07931 0.94583,1.43708 0.65998,0.55533 0.89904,0.61457 1.63419,0.405 0.47362,-0.13505 1.00996,-0.44731 1.19186,-0.69392 z m -7.28358,-6.71815 c 0.6011,-1.44639 0.63953,-1.43499 1.41469,0.42024 l 0.38589,0.92356 h -1.17952 -1.17951 z m 41.42168,6.90158 c 1.44479,-0.81201 2.17596,-2.19093 2.17596,-4.10358 0,-1.40055 -0.0758,-1.59187 -0.99219,-2.50314 -0.67106,-0.66734 -1.56374,-1.17589 -2.75809,-1.57129 -2.02338,-0.66981 -2.57636,-1.13596 -2.07055,-1.7454 0.42161,-0.508 1.52577,-0.5062 2.74804,0.005 1.19227,0.49818 2.12082,0.28866 2.51042,-0.56645 0.4427,-0.97159 0.36531,-1.53149 -0.29752,-2.1524 -0.86141,-0.80693 -1.98163,-1.1673 -3.63803,-1.17035 -3.72043,-0.007 -6.21326,2.63287 -5.31563,5.62886 0.38298,1.27826 1.38012,2.22962 2.93438,2.79972 2.62629,0.96326 2.91042,1.12019 2.91042,1.60745 0,1.18475 -1.40282,1.47735 -2.85067,0.59459 -1.03971,-0.63391 -2.24923,-0.68214 -2.81898,-0.11242 -0.22868,0.22868 -0.4246,0.49657 -0.43542,0.59532 -0.0109,0.0987 -0.068,0.43711 -0.12714,0.75191 -0.41034,2.18546 5.18361,3.53965 8.025,1.94271 z m -132.76154,-0.002 c 0.97604,-0.97602 0.53876,-2.48547 -0.80556,-2.78072 -0.44548,-0.0978 -0.76762,-0.25636 -0.71586,-0.35224 0.86471,-1.60179 1.04554,-2.41271 0.93213,-4.17994 -0.25201,-3.9269 -2.95636,-6.41683 -7.08362,-6.52197 -2.93118,-0.0747 -5.36184,1.14114 -6.74099,3.37184 -0.67647,1.09416 -0.81427,1.61528 -0.89464,3.38323 -0.14552,3.20108 0.74303,5.10648 2.99745,6.42765 1.59035,0.93202 2.82607,1.119 7.61474,1.15231 3.83604,0.0267 4.20924,-0.013 4.69635,-0.50016 z m -10.21291,-4.07459 c -0.82392,-0.82391 -0.89959,-1.03362 -0.89959,-2.49324 0,-1.32594 0.11436,-1.72956 0.68078,-2.40271 2.3823,-2.83121 6.66156,-0.27096 5.67442,3.39497 -0.41444,1.53914 -1.57241,2.40057 -3.22696,2.40057 -1.15872,0 -1.44438,-0.11531 -2.22865,-0.89959 z m 22.76562,4.01572 c 0.28707,-0.40987 0.41188,-1.21158 0.41188,-2.64584 0,-1.47463 0.0937,-2.05525 0.33073,-2.04882 0.1819,0.005 1.10463,1.16578 2.05052,2.57968 1.67596,2.50521 1.74781,2.57276 2.81946,2.65086 0.89666,0.0654 1.17751,-0.031 1.52135,-0.52189 0.69905,-0.99803 0.50514,-1.86015 -0.81925,-3.64236 l -1.24094,-1.66991 0.71918,-0.52391 c 1.58625,-1.15548 2.04889,-3.88093 0.95831,-5.64553 -0.87968,-1.42334 -2.06285,-1.82292 -5.68952,-1.92144 -4.66106,-0.12661 -4.46245,-0.38447 -4.57422,5.9387 -0.12836,7.2612 0.0724,8.03849 2.07619,8.03849 0.75868,0 1.13128,-0.15253 1.43631,-0.58803 z m 0.46281,-8.9916 c 0.0727,-0.99455 0.15175,-1.1112 0.74282,-1.09604 1.57923,0.0405 1.84943,0.12216 2.12844,0.64352 0.46364,0.86633 -0.33481,1.56549 -1.78779,1.56549 h -1.16483 z m 99.54969,8.9916 c 0.33528,-0.47869 0.41188,-1.46275 0.41188,-5.29167 v -4.70363 h 1.57249 c 1.32504,0 1.63732,-0.0925 1.98438,-0.58804 0.56179,-0.80207 0.51705,-1.68804 -0.11729,-2.32238 -0.49083,-0.49083 -0.87895,-0.52887 -5.35781,-0.52511 -2.65576,0.002 -4.95965,0.0915 -5.11977,0.19843 -0.54669,0.36504 -0.91254,1.37324 -0.74318,2.04803 0.22315,0.88911 0.84679,1.18907 2.47211,1.18907 h 1.34032 v 4.5153 c 0,5.53908 0.18471,6.05576 2.16781,6.06399 0.71278,0.003 1.08862,-0.15505 1.38906,-0.58399 z m -95.29368,-38.15804 c 13.25994,-1.92265 24.12838,-7.09267 33.07494,-15.73347 5.6878,-5.4934 10.33204,-12.23441 13.43185,-19.49605 8.66935,-20.30884 7.85732,-45.73084 -2.05713,-64.401487 -3.54001,-6.666455 -8.69767,-12.932461 -14.75765,-17.928971 -1.5872,-1.308666 -5.06789,-3.766862 -5.33369,-3.766862 -0.0775,0 -0.46924,-0.233823 -0.87059,-0.519605 -1.34976,-0.961115 -7.00215,-3.642503 -9.67072,-4.587605 -7.78047,-2.755073 -13.58816,-3.720773 -22.48958,-3.73909 -9.1345,-0.01879 -16.14988,1.307336 -24.07708,4.551334 -14.106246,5.772605 -25.656719,17.464518 -31.688647,32.076685 -5.684142,13.769671 -6.931575,30.365211 -3.460491,46.037501 3.269279,14.76112 10.437551,26.88153 20.859136,35.26948 3.372927,2.71475 5.734772,4.25369 9.425782,6.14168 7.10841,3.63605 14.93156,5.77765 24.04651,6.58279 2.42735,0.21441 10.80751,-0.0857 13.56736,-0.48586 z"
       id="path3"
       sodipodi:nodetypes="cssssssscssssssssscsssssssccsssscssssssssssscssssssssscssssssssscccsssssscccscsssscsscsssssccccccssssssscsssssssscscsscsssssssssscssscssscssscssscsssssscssssssscc" />
    <path
       style="fill:#ffffff;fill-opacity:1;stroke-width:0.264583"
       d="m 118.78356,246.63758 c -11.94326,-0.8444 -18.61262,-1.75255 -28.264653,-3.84877 -0.847955,-0.18415 -1.446898,-0.42965 -1.330984,-0.54559 0.115917,-0.11592 0.01884,-0.13711 -0.215717,-0.0471 -0.234561,0.09 -1.540619,-0.1515 -2.902353,-0.53673 -1.361733,-0.38521 -2.941751,-0.81471 -3.51115,-0.95443 -0.569402,-0.13973 -1.164714,-0.33505 -1.322917,-0.43403 -0.158205,-0.099 -0.448415,-0.20431 -0.644916,-0.23405 -0.431178,-0.0653 -4.402942,-1.37215 -5.33127,-1.75424 -0.363802,-0.14975 -0.78052,-0.30186 -0.926041,-0.33806 -0.561917,-0.13975 -4.599072,-1.71336 -6.65933,-2.59569 -3.129013,-1.34004 -3.915844,-1.77946 -3.569517,-1.9935 0.164589,-0.10171 -0.09584,-0.18495 -0.578734,-0.18495 -0.6008,0 -2.165795,-0.70159 -4.957077,-2.22226 -2.2435,-1.22224 -4.228624,-2.36934 -4.411388,-2.54913 -0.182763,-0.17975 -0.571444,-0.40277 -0.863737,-0.49553 -0.292293,-0.0928 -0.451787,-0.29756 -0.354428,-0.45509 0.10097,-0.16338 0.05452,-0.21071 -0.108138,-0.11017 -0.390565,0.24138 -2.219444,-0.87149 -2.004293,-1.2196 0.10505,-0.16997 0.04536,-0.20082 -0.152273,-0.0787 -0.188018,0.11618 -0.567758,-0.0198 -0.900776,-0.32295 -0.316648,-0.2881 -0.868985,-0.67553 -1.227413,-0.86095 -0.358428,-0.1854 -1.787178,-1.17049 -3.175,-2.18903 -2.64664,-1.94247 -2.867319,-2.11701 -4.050514,-3.20387 -0.403397,-0.37055 -0.972278,-0.80155 -1.264179,-0.95776 -0.291904,-0.15624 -0.459015,-0.40008 -0.371364,-0.5419 0.08765,-0.14184 0.03807,-0.22516 -0.110178,-0.18518 -0.496652,0.13396 -2.684383,-1.75296 -2.576925,-2.2226 0.06855,-0.29958 -0.02297,-0.3955 -0.282363,-0.29596 -0.55539,0.21312 -7.289303,-6.54256 -6.940458,-6.9629 0.183396,-0.22098 0.12115,-0.30083 -0.213362,-0.27371 -0.259766,0.0211 -0.442537,-0.11053 -0.406157,-0.29243 0.03638,-0.18191 -0.0713,-0.30097 -0.239289,-0.26459 -0.478877,0.10371 -5.809258,-6.65316 -8.818642,-11.17864 -3.197566,-4.80847 -6.019054,-9.77586 -5.831025,-10.26586 0.07281,-0.18973 0.03811,-0.2867 -0.0771,-0.2155 -0.368422,0.2277 -2.997668,-5.37815 -2.820109,-6.01278 0.10206,-0.36479 0.07629,-0.452 -0.07127,-0.24112 -0.294505,0.42089 -1.250667,-1.63507 -0.970923,-2.08771 0.1055,-0.1707 0.07681,-0.23831 -0.06416,-0.15119 -0.273457,0.16901 -2.248178,-4.56902 -2.305741,-5.53227 -0.019,-0.31801 -0.10156,-0.53685 -0.183459,-0.48631 -0.248063,0.15311 -1.60986,-4.62807 -1.410203,-4.95112 0.113914,-0.18432 0.06762,-0.22745 -0.119803,-0.11162 -0.168005,0.10384 -0.305464,0.13304 -0.305464,0.0649 0,-0.0681 -0.530146,-2.18853 -1.178102,-4.71197 -1.328021,-5.17196 -2.307168,-9.88425 -2.905004,-13.98079 -2.932875,-20.0969 -2.12911802,-39.44127 2.347092,-56.488546 0.382103,-1.455208 0.748615,-2.883958 0.814472,-3.175 0.341085,-1.507336 2.107483,-6.434656 2.27062,-6.333831 0.103992,0.06427 0.121891,-0.140054 0.03978,-0.454051 -0.08211,-0.314 -0.04124,-0.50446 0.09082,-0.423252 0.132061,0.08121 0.254505,-0.16806 0.272092,-0.553937 0.04089,-0.897054 2.736599,-7.396014 5.013917,-12.087812 1.310262,-2.69944 1.827718,-3.535537 2.020679,-3.264976 0.194582,0.272833 0.218601,0.238704 0.09613,-0.136607 -0.09295,-0.284859 0.03576,-0.797579 0.298892,-1.190625 0.254182,-0.37968 0.467476,-0.749856 0.473993,-0.822616 0.04171,-0.465865 1.408049,-2.345897 1.586949,-2.183591 0.120775,0.109567 0.133943,0.05039 0.02926,-0.131514 -0.284429,-0.494252 0.108088,-1.005334 0.428101,-0.557413 0.189643,0.26544 0.213855,0.228417 0.09293,-0.142084 -0.109016,-0.333994 0.201793,-1.061802 0.932159,-2.182812 0.602639,-0.924965 1.148279,-1.681753 1.212535,-1.681753 0.06425,0 0.05551,0.09922 -0.01945,0.220485 -0.07495,0.121269 0.0352,0.220488 0.244766,0.220488 0.291287,0 0.310689,-0.08477 0.08237,-0.359876 -0.232254,-0.279849 -0.0158,-0.770146 0.973421,-2.20486 0.69965,-1.014743 1.371724,-1.844987 1.493496,-1.844987 0.121772,0 0.191637,-0.0965 0.155257,-0.214453 -0.03638,-0.117949 0.262784,-0.623964 0.664808,-1.124479 0.402027,-0.500515 1.090668,-1.420577 1.530316,-2.044584 0.468053,-0.664323 0.922247,-1.058606 1.095862,-0.951306 0.189015,0.116818 0.22208,0.06283 0.09121,-0.148918 -0.123246,-0.199417 0.01582,-0.559414 0.34794,-0.900777 0.304276,-0.312735 1.297186,-1.461577 2.206466,-2.552983 2.540802,-3.049723 7.398878,-7.943906 7.700349,-7.757583 0.148109,0.09154 0.19503,0.04628 0.10427,-0.100576 -0.212164,-0.343292 0.976527,-1.472494 1.269783,-1.206241 0.121676,0.110471 0.143827,0.06537 0.04923,-0.100219 -0.205055,-0.358939 2.040541,-2.27825 2.344566,-2.003901 0.114776,0.103571 0.133434,0.05631 0.04146,-0.105035 -0.159978,-0.280638 4.283792,-4.157416 4.596452,-4.009985 0.08164,0.0385 0.540462,-0.376486 1.019596,-0.922189 0.479134,-0.545703 0.986385,-0.992188 1.127225,-0.992188 0.140841,0 0.429178,-0.173103 0.64075,-0.384675 0.674894,-0.674896 3.629528,-2.660565 3.856672,-2.591887 0.120325,0.03638 0.218771,-0.04134 0.218771,-0.172709 0,-0.401291 2.892044,-2.18498 3.217029,-1.984129 0.179993,0.111244 0.232569,0.07199 0.128693,-0.09608 -0.199985,-0.323583 3.702048,-2.798564 4.061725,-2.576272 0.125897,0.07781 0.31506,0.0021 0.420359,-0.168309 0.119571,-0.193469 0.07677,-0.238897 -0.114009,-0.120991 -0.168005,0.103833 -0.305464,0.13095 -0.305464,0.06026 0,-0.07069 0.327422,-0.298998 0.727604,-0.507349 0.400183,-0.208352 1.73291,-0.923306 2.961614,-1.588789 1.86264,-1.008827 2.324462,-1.161791 2.778125,-0.920155 0.463981,0.247129 0.497054,0.232712 0.224554,-0.09789 -0.268192,-0.325379 0.0019,-0.546725 1.679737,-1.376979 1.690264,-0.836364 2.066832,-0.936496 2.436228,-0.647806 0.383328,0.299582 0.39557,0.288512 0.09978,-0.09025 -0.293415,-0.375717 -0.196762,-0.487895 0.745046,-0.864733 0.595206,-0.238154 1.211805,-0.352904 1.370219,-0.255 0.158411,0.0979 0.215177,0.06014 0.126145,-0.08391 -0.08944,-0.144716 0.809829,-0.650557 2.00964,-1.130426 1.194334,-0.477679 2.707299,-1.1093797 3.362142,-1.4037787 0.654844,-0.294399 1.506342,-0.548246 1.892221,-0.5641 0.385876,-0.01585 0.634235,-0.138356 0.551908,-0.272227 -0.08278,-0.134601 0.05326,-0.165523 0.304334,-0.06917 0.249711,0.09582 0.393618,0.07649 0.319794,-0.04296 -0.07383,-0.119452 1.795224,-0.826656 4.153445,-1.571562 15.317573,-4.838467 29.013633,-6.92932596 45.430383,-6.93546696 11.57053,-0.0043 22.07423,1.13538296 33.05087,3.58620196 2.24345,0.500907 4.12571,0.910741 4.18281,0.910741 0.0571,0 0.0311,0.1177 -0.0579,0.261554 -0.0907,0.146825 0.009,0.196106 0.22717,0.112347 0.68522,-0.262943 11.37653,2.960571 11.13192,3.356364 -0.0686,0.111056 0.0146,0.288076 0.18498,0.393375 0.19347,0.11957 0.2389,0.07677 0.12099,-0.114009 -0.10383,-0.168005 -0.0641,-0.305464 0.0883,-0.305464 0.59792,0 7.16244,2.6988847 7.16244,2.9447087 0,0.143835 0.11556,0.190098 0.25681,0.102801 0.14125,-0.0873 0.61625,0.02715 1.05556,0.254331 0.43931,0.227176 0.86265,0.404902 0.94075,0.394946 0.0781,-0.0099 0.70442,0.267229 1.39183,0.615966 0.68741,0.348734 2.44047,1.21417 3.89567,1.92319 3.25261,1.584769 8.92292,4.812361 9.1889,5.230408 0.10764,0.169185 0.19753,0.21736 0.19976,0.107061 0.005,-0.223497 3.7317,2.16472 4.0293,2.581796 0.10383,0.145521 0.28242,0.264768 0.39687,0.264993 0.60595,0.0013 6.97835,4.907079 6.78349,5.222365 -0.1056,0.170873 -0.0494,0.205398 0.14191,0.08717 0.37516,-0.231862 2.69619,1.580505 2.60461,2.033802 -0.0338,0.167452 0.13651,0.31002 0.37852,0.316815 0.62006,0.01741 3.97042,3.033077 3.7557,3.380504 -0.1053,0.170374 -0.0525,0.2089 0.13089,0.09555 0.17188,-0.106227 0.37704,-0.0083 0.46548,0.222182 0.087,0.226671 0.26473,0.346252 0.395,0.265739 0.13028,-0.08051 0.25175,-0.02029 0.26994,0.133811 0.0182,0.154109 0.0534,0.429027 0.0782,0.610928 0.0248,0.181901 0.18851,0.300963 0.3638,0.264583 0.4093,-0.08495 1.38934,0.885174 1.15655,1.14485 -0.097,0.108217 -0.0449,0.121808 0.11588,0.0302 0.48584,-0.276865 1.40415,0.928582 1.31639,1.727991 -0.0435,0.396129 0.0314,0.651976 0.16637,0.56855 0.13498,-0.08342 0.18384,-0.312171 0.10857,-0.50832 -0.0886,-0.230902 -3e-5,-0.304133 0.25123,-0.207716 0.21345,0.08191 0.35702,0.284202 0.31905,0.449545 -0.038,0.165344 0.01,0.300625 0.10629,0.300625 0.37823,0 1.51498,1.283063 1.35955,1.534549 -0.0908,0.146852 -0.0428,0.191455 0.10662,0.09912 0.35162,-0.21731 3.60306,3.432596 3.37975,3.793927 -0.0932,0.150733 -0.0416,0.241342 0.11468,0.201358 0.33208,-0.08499 2.39089,2.162998 2.39698,2.61723 0.002,0.169772 0.0934,0.348366 0.20257,0.396875 0.557,0.247557 1.61578,1.871464 1.48534,2.278171 -0.11102,0.346186 -0.085,0.37022 0.1084,0.0999 0.51623,-0.721725 8.5307,12.109683 11.37724,18.21533 1.71011,3.668003 2.1662,4.829537 2.00126,5.096422 -0.0998,0.161467 -0.0438,0.198263 0.13427,0.08822 0.30901,-0.190973 0.43014,0.26261 0.34658,1.297652 -0.0314,0.388786 0.0183,0.434993 0.18714,0.174178 0.47503,-0.733698 4.50104,11.499347 6.08155,18.478947 2.02296,8.933367 2.92643,16.417567 3.1301,25.929167 0.36116,16.86448 -1.95656,29.60927 -8.15194,44.82657 -0.7084,1.73994 -1.28797,3.20747 -1.28797,3.26117 0,0.0537 -0.13745,0.0127 -0.30546,-0.0911 -0.18169,-0.11229 -0.23394,-0.073 -0.12893,0.0969 0.24186,0.39135 -0.37216,1.67152 -0.7035,1.46673 -0.14795,-0.0914 -0.18571,-0.0337 -0.0848,0.12964 0.18899,0.30579 -1.33437,3.55965 -2.31587,4.94663 -0.30893,0.43656 -0.56724,0.85328 -0.57404,0.92604 -0.0546,0.58356 -1.25553,2.36524 -1.49471,2.21742 -0.18024,-0.1114 -0.22112,-0.0625 -0.10491,0.12555 0.22463,0.36345 -1.40684,2.99519 -1.73215,2.79415 -0.12237,-0.0756 -0.16137,0.0218 -0.0867,0.21648 0.0747,0.19471 -0.31358,0.97026 -0.86291,1.72345 -0.54933,0.7532 -1.33503,1.85179 -1.74604,2.44133 -0.41097,0.58954 -0.85611,1.00461 -0.98914,0.92238 -0.13306,-0.0822 -0.18193,0.007 -0.10864,0.19778 0.0733,0.191 -0.22574,0.74031 -0.6645,1.22069 -0.43876,0.48039 -0.79775,0.96669 -0.79775,1.08067 0,0.37195 -0.96321,1.0894 -1.18837,0.88515 -0.12065,-0.10946 -0.13176,-0.047 -0.0246,0.13885 0.12544,0.21759 -0.47163,1.01756 -1.67736,2.24741 -1.02971,1.05025 -1.87215,1.99954 -1.87215,2.10953 0,0.11 -0.13365,0.19999 -0.29698,0.19999 -0.20035,0 -0.21209,-0.10761 -0.0361,-0.33073 0.21919,-0.27784 0.36645,-1.25677 0.18905,-1.25677 -0.0307,0 -0.2192,0.20145 -0.41892,0.44766 -0.24674,0.30419 -0.25712,0.38398 -0.0324,0.24897 0.1819,-0.10928 0.33073,-0.0796 0.33073,0.0659 0,0.14552 -0.11386,0.33495 -0.25303,0.42096 -0.13916,0.086 -0.17846,0.3507 -0.0873,0.58819 0.11001,0.28667 0.0627,0.36813 -0.14081,0.24237 -0.20026,-0.12377 -0.2519,-0.0471 -0.14895,0.22118 0.13858,0.36113 1.37372,0.41078 10.24958,0.41202 10.82998,0.002 13.7882,0.26434 17.89721,1.59011 2.4067,0.77652 6.11433,2.64554 5.90857,2.97851 -0.10033,0.16234 -0.0401,0.19428 0.14756,0.0783 0.36951,-0.22837 1.14974,0.32879 0.93868,0.67031 -0.0787,0.12736 0.0217,0.16833 0.2231,0.091 0.50467,-0.19366 3.85482,2.95924 5.29675,4.98488 1.21928,1.71288 2.42676,3.89296 2.15619,3.89296 -0.0861,0 0.0269,0.18346 0.25112,0.40768 0.54745,0.54747 1.65992,4.13679 2.14595,6.92394 0.63916,3.66526 0.41228,8.39974 -0.58054,12.11526 -0.5166,1.9332 -2.45867,6.25253 -2.73463,6.08198 -0.10959,-0.0677 -0.18293,0.0839 -0.16298,0.33702 0.0201,0.2545 -0.12034,0.42767 -0.31412,0.38746 -0.19272,-0.04 -0.27707,0.046 -0.18746,0.19097 0.22763,0.36828 -0.64923,1.63494 -0.98718,1.42608 -0.15208,-0.094 -0.20021,-0.0474 -0.10695,0.10348 0.23085,0.37351 -0.85259,1.7086 -1.20822,1.48881 -0.15959,-0.0986 -0.2082,-0.0526 -0.1108,0.10499 0.22521,0.36438 -2.12067,2.47991 -4.37846,3.94853 -2.12807,1.38422 -5.84245,3.02099 -6.99746,3.08351 -0.45824,0.0249 -0.78793,0.11933 -0.73263,0.21008 0.12882,0.21153 -3.06645,0.84722 -3.26422,0.64942 -0.0816,-0.0816 -0.32644,0 -0.54409,0.18007 -0.31266,0.25948 -14.4244,0.33266 -67.22851,0.34865 -36.75804,0.0111 -67.42811,-0.022 -68.15571,-0.0733 z m 101.47403,-18.73997 c 0.53172,-0.64068 0.14867,-2.44713 -1.06435,-5.01946 -2.01528,-4.2736 -2.60546,-5.64102 -2.48616,-5.76033 0.0646,-0.0646 -0.0641,-0.26799 -0.28588,-0.45207 -0.2218,-0.18408 -0.40327,-0.48812 -0.40327,-0.67564 0,-0.54416 -1.56479,-1.71092 -2.29458,-1.71092 -1.25536,0 -2.13732,0.80731 -3.162,2.89439 -0.54018,1.10021 -1.00751,2.11947 -1.03853,2.26499 -0.031,0.14552 -0.72543,1.70328 -1.54314,3.46167 -1.56464,3.3646 -1.73279,4.13909 -1.09605,5.04817 0.94673,1.35166 2.64992,0.96714 3.59333,-0.81121 l 0.64527,-1.21634 h 2.4587 2.4587 l 0.45217,1.06214 c 0.2487,0.5842 0.80629,1.27614 1.23911,1.53763 0.68342,0.41293 0.87989,0.4291 1.49352,0.12298 0.38861,-0.19386 0.85354,-0.52957 1.03316,-0.746 z m -7.53207,-6.01165 c 0.10056,-0.32742 0.3221,-0.94374 0.49231,-1.36964 l 0.30947,-0.7743 0.5692,1.36961 0.56919,1.36965 h -1.0615 c -0.9786,0 -1.04722,-0.0465 -0.87867,-0.59532 z m -79.1523,6.64491 c 0.89245,-0.40664 1.01387,-0.81301 0.96564,-3.23218 -0.0298,-1.49272 0.0464,-2.04811 0.27059,-1.97337 0.1716,0.0572 1.10624,1.22918 2.07697,2.6044 2.0285,2.87375 2.75719,3.33119 3.92423,2.46351 1.13758,-0.84576 1.1167,-2.09473 -0.0608,-3.63736 -0.52117,-0.68278 -0.87567,-1.35776 -0.78778,-1.49997 0.0879,-0.14222 0.017,-0.22585 -0.15751,-0.18587 -0.62042,0.14216 -0.51698,-0.49869 0.13699,-0.84868 0.79052,-0.42307 1.7285,-2.23523 1.7285,-3.33941 0,-1.40531 -1.06296,-3.08316 -2.37117,-3.74285 -1.03105,-0.51993 -1.58386,-0.5948 -4.36563,-0.59126 -1.75179,0.002 -3.32646,0.0939 -3.49926,0.20382 -0.17279,0.10988 -0.44068,0.53252 -0.59531,0.93921 -0.35751,0.94033 -0.37471,11.00777 -0.0204,11.93966 0.3958,1.04103 1.58979,1.43124 2.75497,0.90035 z m 0.95305,-9.49108 v -1.05643 l 1.12448,0.004 c 1.2367,0.005 1.61106,0.1723 1.85353,0.83098 0.24114,0.65505 -0.57767,1.20433 -1.85353,1.2434 l -1.12448,0.0344 z m 39.15833,9.12029 c 0.50932,-0.27276 1.02419,-0.4685 1.14414,-0.43497 0.11996,0.0335 0.15104,-0.0476 0.0691,-0.18021 -0.082,-0.13264 0.0282,-0.3883 0.24492,-0.56811 0.59203,-0.49136 0.47473,-1.52837 -0.25547,-2.25859 -0.79621,-0.79619 -1.39777,-0.81505 -2.79357,-0.0875 -1.39422,0.72673 -2.72152,0.53943 -3.79665,-0.53567 -1.09548,-1.09548 -1.29674,-3.2593 -0.43312,-4.65667 0.37486,-0.60653 0.73129,-0.9048 0.97122,-0.81272 0.20847,0.08 0.31401,0.0402 0.23452,-0.0884 -0.39735,-0.64291 2.152,-0.74649 3.33367,-0.13544 1.4958,0.77351 3.14623,-0.2355 2.91888,-1.78449 -0.15513,-1.05699 -1.42665,-1.94912 -3.33268,-2.3383 -3.09089,-0.6311 -6.37048,0.71297 -7.93232,3.25088 -1.03738,1.68569 -1.31935,4.54078 -0.65095,6.59109 0.24792,0.76052 0.38139,1.495 0.2966,1.63222 -0.0848,0.13718 -0.0398,0.17875 0.10003,0.0923 0.13982,-0.0864 0.70941,0.31191 1.26576,0.88516 0.55636,0.57325 1.12223,1.04227 1.2575,1.04227 0.13527,0 0.16099,0.13745 0.0572,0.30546 -0.1042,0.16862 -0.0737,0.23435 0.068,0.14674 0.14124,-0.0873 0.72519,0.0154 1.29765,0.22797 1.42281,0.52861 4.70394,0.36663 5.93563,-0.29303 z m 20.81067,0.33951 c 0.31353,-0.0358 0.51855,-0.14851 0.45561,-0.25034 -0.0629,-0.10184 0.15679,-0.32449 0.48829,-0.49477 2.8474,-1.46267 4.13061,-5.53445 2.87237,-9.11437 -0.45366,-1.29077 -1.60819,-3.17934 -1.60819,-2.63068 0,0.11775 -0.27128,-0.0408 -0.60285,-0.35226 -0.99224,-0.93216 -2.78423,-1.45589 -5.00978,-1.46416 -1.74538,-0.006 -2.2607,0.10491 -3.5605,0.76965 -0.91575,0.46833 -1.85492,1.21665 -2.36305,1.88285 -0.4638,0.6081 -0.88988,1.059 -0.94685,1.00204 -0.13529,-0.13528 -0.1932,0.33443 -0.37847,3.07036 -0.13282,1.9613 -0.0752,2.45607 0.41986,3.60693 0.31558,0.73358 0.9181,1.66367 1.33893,2.06687 0.42083,0.40317 0.69145,0.85228 0.60138,0.99801 -0.0947,0.15319 -0.03,0.1823 0.15329,0.069 0.17438,-0.10777 0.4893,-0.053 0.69983,0.12173 1.14768,0.9525 3.45229,1.17523 7.44013,0.71911 z m -4.5388,-3.6691 c -1.32858,-0.78047 -1.98437,-1.90657 -1.98437,-3.40755 0,-2.10515 1.2339,-3.43958 3.18047,-3.43958 2.61391,0 4.12811,2.50775 3.05908,5.06629 -0.20627,0.49366 -0.61816,1.1176 -0.91531,1.38653 -0.65421,0.59206 -2.61015,0.82298 -3.33987,0.39431 z m 3.60563,-1.22473 c 0.32911,-0.41966 0.31975,-0.429 -0.0999,-0.0999 -0.44073,0.34565 -0.58088,0.56293 -0.36312,0.56293 0.0549,0 0.2633,-0.20836 0.46302,-0.46302 z m 40.51364,4.39118 c 0.39968,-0.47233 0.46303,-1.1375 0.46303,-4.86188 0,-2.37307 0.0723,-4.50299 0.16059,-4.73318 0.1172,-0.30541 0.52277,-0.41852 1.50051,-0.41852 1.562,0 2.30764,-0.51673 2.30764,-1.59919 0,-0.39789 -0.21153,-0.98467 -0.47005,-1.30395 -0.45469,-0.56151 -0.63442,-0.58014 -5.49012,-0.56904 -4.8103,0.011 -5.03938,0.0352 -5.48305,0.58052 -0.61307,0.75343 -0.58628,1.71007 0.0661,2.36249 0.40089,0.4009 0.88195,0.52917 1.98438,0.52917 h 1.45521 l 0.006,4.69635 c 0.005,4.05022 0.0688,4.77388 0.46302,5.25981 0.25143,0.30988 0.63573,0.6304 0.85401,0.71221 0.64784,0.24286 1.68704,-0.0689 2.18281,-0.65479 z m 19.58139,0.41831 c 2.78482,-0.94888 3.92795,-4.718 2.09159,-6.89637 -0.57735,-0.68487 -2.17017,-1.52331 -3.65197,-1.9223 -1.04206,-0.28062 -2.11733,-1.08405 -1.45079,-1.08405 0.16333,0 0.26721,-0.14883 0.23083,-0.33073 -0.0377,-0.18847 0.25908,-0.36793 0.6899,-0.4172 0.87392,-0.0999 2.3478,0.43492 2.13727,0.7756 -0.0785,0.12698 0.0616,0.15245 0.31134,0.0566 0.34332,-0.13173 0.39881,-0.0826 0.22754,0.20148 -0.19145,0.31756 -0.15901,0.321 0.20958,0.0222 0.23984,-0.19442 0.59012,-0.26464 0.7784,-0.15603 0.18828,0.10864 0.26294,0.10896 0.16592,0 -0.18677,-0.20836 0.60121,-1.17977 0.85357,-1.05227 0.0814,0.0411 0.0814,-0.38489 0,-0.94666 -0.18833,-1.29971 -1.01647,-1.96316 -2.952,-2.36497 -1.62103,-0.33653 -3.56661,-0.0599 -4.67794,0.66502 -0.33155,0.21627 -0.72144,0.31988 -0.86646,0.23026 -0.14502,-0.0896 -0.24183,-0.0648 -0.21511,0.0551 0.0267,0.11995 -0.0464,0.43644 -0.16256,0.70331 -0.1543,0.35461 -0.26556,0.3971 -0.41341,0.15787 -0.12925,-0.20911 -0.20778,-0.0977 -0.21749,0.30855 -0.008,0.34973 -0.11491,1.31638 -0.23683,2.14812 -0.12192,0.83172 -0.16943,1.46003 -0.10562,1.39618 0.0639,-0.0638 0.30779,0.26771 0.54211,0.73671 0.41074,0.82214 0.91125,1.13263 4.52398,2.80643 1.08926,0.50467 1.31752,1.19798 0.53273,1.61798 -0.66037,0.35341 -2.20622,0.0939 -1.94624,-0.32676 0.10168,-0.16451 0.0515,-0.20732 -0.11923,-0.10178 -0.29482,0.18222 -1.04536,-0.14814 -2.03147,-0.89413 -0.48588,-0.36759 -0.49813,-0.36272 -0.16602,0.0661 0.31538,0.40727 0.29273,0.46302 -0.18801,0.46302 -0.64559,0 -1.37031,0.93287 -1.37031,1.7639 0,2.09889 4.25146,3.41693 7.4767,2.31799 z m -131.97109,-0.36897 c 0.96204,-1.06301 0.20085,-2.91917 -1.19712,-2.91917 -0.46077,0 -0.45742,-0.0623 0.0671,-1.24809 0.98783,-2.23314 0.62124,-5.22788 -0.85938,-7.0204 -2.38054,-2.88203 -6.88727,-3.56874 -10.3058,-1.57034 -0.65484,0.38281 -1.30969,0.65963 -1.45521,0.61516 -0.14552,-0.0445 -0.18043,0.003 -0.0776,0.10615 0.10285,0.10285 -0.0865,0.55925 -0.42073,1.01424 -1.05209,1.4321 -1.28106,2.37153 -1.18213,4.85012 0.081,2.02803 0.1925,2.48595 0.86403,3.54672 0.8295,1.31029 2.51719,2.49393 4.08444,2.86459 0.53092,0.12554 3.00069,0.24024 5.48837,0.25484 4.18048,0.0246 4.55873,-0.0127 4.99401,-0.49382 z m -9.58154,-3.45596 c -0.8843,-0.35552 -1.65319,-1.803 -1.65433,-3.11438 -0.002,-2.31791 1.43743,-3.66768 3.64588,-3.41873 2.60369,0.29347 3.6463,3.20286 2.03114,5.6679 -0.25665,0.39169 -0.58099,0.59018 -0.81665,0.49974 -0.21501,-0.0825 -0.32589,-0.0448 -0.24641,0.0838 0.33016,0.53422 -1.822,0.73901 -2.95963,0.28165 z m 62.51314,-5.76212 c -0.0815,-0.0815 -0.29495,-1.6e-4 -0.47443,0.18066 -0.25936,0.2613 -0.22897,0.2917 0.14811,0.14811 0.26094,-0.0994 0.40778,-0.2473 0.32632,-0.32877 z m -67.75163,-1.62031 c 0.0837,-0.13546 0.0511,-0.30882 -0.0726,-0.38523 -0.12364,-0.0764 -0.22481,0.0344 -0.22481,0.2463 0,0.44614 0.0834,0.48511 0.29739,0.13893 z m 78.314,-1.89296 c -0.0852,-0.13784 -0.26767,-0.18092 -0.40551,-0.0957 -0.13784,0.0852 -0.18092,0.26767 -0.0957,0.40551 0.0852,0.13784 0.26767,0.18091 0.40551,0.0957 0.13784,-0.0852 0.18092,-0.26766 0.0957,-0.4055 z M 35.836684,214.18791 c 0,-0.0502 -0.26789,-0.3181 -0.595312,-0.59531 l -0.595313,-0.50403 0.504029,0.59531 c 0.473662,0.55945 0.686596,0.71576 0.686596,0.50403 z m -1.852083,-1.85208 c 0,-0.0502 -0.267891,-0.3181 -0.595313,-0.59532 l -0.595312,-0.50402 0.504028,0.59531 c 0.473663,0.55944 0.686597,0.71576 0.686597,0.50403 z M 234.3827,190.49296 c 0.36248,-0.40054 0.38429,-0.54381 0.10715,-0.70388 -0.19138,-0.11054 -0.25969,-0.10354 -0.15182,0.0155 0.26835,0.29622 -0.32097,0.9625 -0.66388,0.75058 -0.15998,-0.0989 -0.19633,-0.0422 -0.0867,0.1352 0.24547,0.39718 0.2605,0.39344 0.79524,-0.19743 z m -93.66643,-0.95042 c 2.31309,-0.38449 5.7659,-1.18192 7.67291,-1.77207 1.90701,-0.59015 3.64589,-1.08813 3.86417,-1.10662 0.21828,-0.0185 0.56345,-0.19169 0.76705,-0.38489 0.20359,-0.1932 0.59071,-0.2936 0.86026,-0.22311 0.30578,0.08 0.42388,0.021 0.31402,-0.15671 -0.11547,-0.18685 -0.005,-0.21907 0.3223,-0.0936 0.2741,0.10518 0.41756,0.11043 0.31879,0.0117 -0.0988,-0.0988 0.66369,-0.58369 1.69435,-1.07762 1.53954,-0.7378 1.95072,-0.84037 2.30431,-0.57478 0.35966,0.27016 0.37682,0.26312 0.10441,-0.0429 -0.26924,-0.3024 0.0928,-0.61101 2.08032,-1.77317 1.32346,-0.77388 2.51194,-1.40706 2.64107,-1.40706 0.12913,0 0.23479,-0.1389 0.23479,-0.30868 0,-0.16977 0.0694,-0.23922 0.15434,-0.15434 0.0849,0.0849 0.35277,-0.0187 0.59531,-0.23014 1.37929,-1.20262 2.1846,-1.70459 2.46081,-1.53388 0.17612,0.10885 0.2407,0.0786 0.14898,-0.0698 -0.0891,-0.14408 0.69623,-0.9624 1.74505,-1.81848 1.04883,-0.85609 2.06815,-1.77663 2.26514,-2.04565 0.21559,-0.2944 0.52838,-0.42382 0.78569,-0.32508 0.23513,0.0902 0.34455,0.0811 0.24315,-0.0203 -0.19121,-0.19122 0.47512,-1.02784 2.87175,-3.60565 0.7737,-0.8322 1.60556,-1.81654 1.84859,-2.18744 0.37369,-0.57032 0.50813,-0.62263 0.87142,-0.33901 0.37369,0.29174 0.38637,0.28 0.0975,-0.0903 -0.27265,-0.34945 -0.24418,-0.53886 0.15906,-1.05833 0.27013,-0.348 1.14742,-1.61143 1.94952,-2.80764 0.80211,-1.19621 1.5533,-2.08918 1.6693,-1.98438 0.11601,0.10481 0.12477,0.0409 0.0195,-0.14198 -0.10581,-0.18379 0.0539,-0.67715 0.35714,-1.10295 1.49216,-2.09555 4.71643,-9.61992 5.9577,-13.90328 2.41775,-8.34316 3.51711,-16.98285 3.22058,-25.31013 -0.09,-2.52717 -0.2177,-4.89251 -0.28381,-5.25632 -0.0661,-0.3638 -0.25735,-1.79255 -0.42498,-3.175 -0.16764,-1.38244 -0.54705,-3.70416 -0.84315,-5.15937 -0.2961,-1.45521 -0.56534,-2.82443 -0.59832,-3.04271 -0.033,-0.21828 -0.19586,-0.73205 -0.36197,-1.1417 -0.1661,-0.40966 -0.302,-0.85598 -0.302,-0.99183 0,-0.34424 -1.7885,-5.7125 -2.23459,-6.707217 -0.2014,-0.449104 -0.85121,-1.871922 -1.44402,-3.161821 -0.59281,-1.289897 -1.00127,-2.469153 -0.9077,-2.620566 0.0936,-0.151416 0.0452,-0.198057 -0.10759,-0.103648 -0.33341,0.206058 -0.6722,-0.549158 -0.42546,-0.948399 0.11053,-0.178837 0.0462,-0.20256 -0.17639,-0.06501 -0.25393,0.156938 -0.30424,0.09621 -0.1827,-0.22053 0.10342,-0.269504 0.0446,-0.412959 -0.15347,-0.374131 -0.17666,0.03463 -0.30335,-0.153326 -0.28152,-0.41769 0.0218,-0.264361 -0.0274,-0.413618 -0.1093,-0.331679 -0.22336,0.223364 -1.15743,-1.428221 -0.97484,-1.723665 0.0868,-0.140377 0.0424,-0.222515 -0.0986,-0.182531 -0.34601,0.09813 -3.24696,-4.174911 -3.01161,-4.436041 0.10226,-0.113467 0.0501,-0.128707 -0.11586,-0.03386 -0.16598,0.09484 -0.4852,-0.10749 -0.70938,-0.449625 -0.22417,-0.342133 -0.60289,-0.817361 -0.84159,-1.056061 -0.2387,-0.238699 -0.36986,-0.433998 -0.29148,-0.433998 0.0784,0 -1.13102,-1.279922 -2.68756,-2.844271 -1.55655,-1.564349 -2.79985,-2.942418 -2.7629,-3.062374 0.0369,-0.119957 -0.0453,-0.148588 -0.18277,-0.06362 -0.13747,0.08496 -0.4818,-0.140275 -0.76518,-0.500529 -0.28337,-0.360254 -0.57575,-0.594484 -0.64972,-0.520512 -0.074,0.07397 -0.46432,-0.25749 -0.86745,-0.736579 -0.40313,-0.479086 -0.80489,-0.852892 -0.89282,-0.830677 -0.33192,0.08387 -2.12892,-1.423628 -1.94247,-1.629535 0.10731,-0.118517 0.0662,-0.142134 -0.0914,-0.05248 -0.15759,0.08965 -0.69337,-0.110003 -1.19062,-0.443682 -0.49726,-0.333682 -1.70829,-1.053328 -2.69118,-1.599211 -0.9829,-0.545885 -1.72687,-1.089943 -1.65328,-1.209016 0.0736,-0.119073 -0.12457,-0.148931 -0.44036,-0.06635 -0.4518,0.11815 -0.53892,0.05831 -0.40879,-0.280786 0.0909,-0.237011 0.0331,-0.51267 -0.12855,-0.612574 -0.17797,-0.109995 -0.21944,-0.06115 -0.10512,0.123817 0.29408,0.47584 -0.33005,0.36295 -1.80129,-0.325808 -2.82908,-1.324425 -3.8443,-1.750031 -4.1782,-1.751608 -0.18988,-7.93e-4 -0.69464,-0.183827 -1.12167,-0.406511 -0.42703,-0.222684 -1.20093,-0.508045 -1.71979,-0.634135 -0.51885,-0.126089 -2.12661,-0.537289 -3.57279,-0.913781 -9.95085,-2.590545 -22.23214,-2.655937 -31.8987,-0.169843 -2.39368,0.615619 -6.88164,2.074153 -8.54446,2.776852 -0.55211,0.23332 -1.13606,0.3425 -1.29765,0.242625 -0.17789,-0.109937 -0.21933,-0.06106 -0.10503,0.123876 0.10796,0.174696 0.032,0.305464 -0.17741,0.305464 -0.20141,0 -1.58783,0.654844 -3.08093,1.455208 -1.493101,0.800365 -2.902997,1.455208 -3.1331,1.455208 -0.230103,0 -0.342873,0.07549 -0.250602,0.167765 0.09227,0.09227 -0.691558,0.712337 -1.741842,1.377926 -1.050283,0.665591 -1.997078,1.334235 -2.103991,1.485881 -0.190466,0.270158 -0.312224,0.01752 -0.227264,-0.471551 0.02085,-0.119956 -0.07892,-0.145909 -0.221697,-0.05767 -0.142772,0.08824 -0.201779,0.311063 -0.13113,0.495171 0.142788,0.372099 -3.30127,3.26708 -3.723439,3.129822 -0.145521,-0.04731 -0.183917,-0.0053 -0.08532,0.09324 0.206471,0.20647 -1.578501,1.849212 -2.009317,1.849212 -0.157636,0 -0.28661,0.144349 -0.28661,0.320778 0,0.176427 -0.664628,1.009865 -1.476949,1.852084 -0.812321,0.842216 -2.049822,2.241552 -2.75,3.109634 -1.362535,1.689275 -5.430342,7.71615 -5.430342,8.045617 0,0.108982 -0.215033,0.428958 -0.477848,0.71106 -0.262819,0.282101 -0.480968,0.572442 -0.484778,0.645202 -0.02939,0.561134 -1.829297,3.909692 -2.033643,3.783399 -0.143272,-0.08855 -0.183991,-0.03721 -0.09049,0.114077 0.211309,0.341911 -0.317627,1.923357 -0.643295,1.923357 -0.131284,0 -0.2246,0.0893 -0.207367,0.198438 0.08519,0.539554 -0.0549,1.14114 -0.239218,1.027229 -0.11434,-0.07066 -0.213924,0.07113 -0.2213,0.315113 -0.02175,0.719008 -2.013085,6.78543 -2.259179,6.88234 -0.123942,0.0488 -0.163775,0.18838 -0.08852,0.31014 0.123809,0.20033 -0.764247,4.86066 -1.108808,5.81883 -0.0785,0.21828 -0.172112,0.75406 -0.208034,1.19062 -0.03592,0.43656 -0.258273,2.52016 -0.49411,4.63021 -0.927684,8.30009 -0.269621,18.08075 1.80816,26.87428 0.364996,1.54472 0.596929,2.9165 0.515411,3.0484 -0.08152,0.1319 -0.04556,0.23982 0.0799,0.23982 0.338564,0 1.452523,3.65079 1.231279,4.03528 -0.10455,0.18169 -0.09431,0.24373 0.02275,0.13787 0.117067,-0.10586 0.867354,1.43547 1.667303,3.42519 0.79995,1.98972 1.796669,4.19807 2.214931,4.90745 0.418264,0.70937 0.680008,1.43022 0.581657,1.60189 -0.09835,0.17166 -0.07891,0.22137 0.0432,0.11046 0.274518,-0.24933 1.739281,2.1971 1.524018,2.5454 -0.0855,0.13836 -0.03985,0.1801 0.101452,0.0928 0.141304,-0.0873 0.46735,0.19746 0.724548,0.63286 0.395148,0.66893 0.412925,0.8615 0.114692,1.24238 -0.308756,0.39432 -0.301056,0.41034 0.06151,0.12793 0.353131,-0.27505 0.653875,-0.001 2.032777,1.85209 1.784194,2.3978 4.57516,5.60337 5.538158,6.36087 0.340241,0.26763 0.549103,0.59908 0.46414,0.73656 -0.08496,0.13747 -0.05633,0.21904 0.06362,0.18127 0.357335,-0.11252 1.669118,1.17121 1.491114,1.45923 -0.09028,0.14608 -0.0471,0.19326 0.09595,0.10485 0.143055,-0.0884 0.628329,0.16108 1.078388,0.55443 0.450062,0.39335 1.299073,1.0618 1.886696,1.48545 0.587622,0.42365 1.018951,0.85029 0.958504,0.94809 -0.06044,0.0978 0.03369,0.18093 0.209193,0.18473 0.175498,0.004 1.152527,0.55919 2.171173,1.23419 1.018646,0.67501 1.948408,1.22752 2.066137,1.22782 0.117729,2.6e-4 0.129098,0.13799 0.02527,0.30599 -0.120454,0.1949 -0.07219,0.2334 0.133348,0.10637 0.177175,-0.1095 0.522994,-0.0264 0.768485,0.18455 0.654433,0.56247 6.245389,3.20554 8.317699,3.9321 0.98227,0.34439 1.78594,0.72355 1.78594,0.84258 0,0.11903 0.10638,0.15067 0.23641,0.0703 0.13003,-0.0804 0.722,0.0252 1.3155,0.23461 1.57157,0.55448 8.00728,1.91998 10.61893,2.25308 3.59734,0.45881 4.34273,0.48874 9.92187,0.39831 4.18091,-0.0678 6.17446,-0.23252 9.4973,-0.78486 z m 32.57845,-15.95808 c -0.0815,-0.0815 -0.29495,-1.7e-4 -0.47443,0.18065 -0.25936,0.26131 -0.22897,0.2917 0.14812,0.14812 0.26093,-0.0994 0.40778,-0.24731 0.32631,-0.32877 z m -89.30387,-3.34278 c 0,-0.0642 -0.119062,-0.19026 -0.264583,-0.28019 -0.145521,-0.0899 -0.264583,-0.0374 -0.264583,0.11667 0,0.15411 0.119062,0.2802 0.264583,0.2802 0.145521,0 0.264583,-0.0525 0.264583,-0.11668 z m 95.812,-4.71638 c -0.26131,-0.25936 -0.2917,-0.22897 -0.14812,0.14812 0.0994,0.26094 0.24731,0.40778 0.32877,0.32632 0.0815,-0.0815 1.7e-4,-0.29496 -0.18065,-0.47444 z M 77.202986,88.722993 c -0.08617,-0.224557 -0.213421,-0.351541 -0.282773,-0.282186 -0.06936,0.06935 -0.04762,0.253084 0.0483,0.408286 0.260893,0.422132 0.41338,0.340125 0.234473,-0.1261 z M 92.058769,72.200976 c 0.09269,-0.149982 -0.01352,-0.194336 -0.248968,-0.103984 -0.45837,0.175892 -0.542234,0.365538 -0.16165,0.365538 0.136933,0 0.321712,-0.1177 0.410618,-0.261554 z M 246.53632,68.61466 c -0.0862,-0.224557 -0.21341,-0.351541 -0.28278,-0.282186 -0.0693,0.06936 -0.0476,0.253085 0.0483,0.408286 0.26088,0.422133 0.41338,0.340125 0.23447,-0.1261 z M 101.59264,65.634462 c -0.0815,-0.08146 -0.29495,-1.69e-4 -0.47443,0.180652 -0.25936,0.261308 -0.22897,0.291698 0.14811,0.148114 0.26094,-0.09936 0.40778,-0.247303 0.32632,-0.328766 z M 238.0551,54.205915 c 0.0762,-0.291243 0.0305,-0.46281 -0.10144,-0.38126 -0.13195,0.08155 -0.2399,0.31984 -0.2399,0.529532 0,0.547622 0.17979,0.469527 0.34134,-0.148272 z M 229.95265,43.27017 c 0,-0.19403 -0.15686,-0.35278 -0.34857,-0.35278 -0.26049,0 -0.27459,0.08916 -0.0558,0.35278 0.16103,0.194027 0.31789,0.352777 0.34858,0.352777 0.0307,0 0.0558,-0.15875 0.0558,-0.352777 z M 35.870434,36.809926 c 0.329108,-0.419645 0.319749,-0.429004 -0.0999,-0.0999 -0.440729,0.345643 -0.580887,0.562917 -0.363124,0.562917 0.05494,0 0.2633,-0.20836 0.46302,-0.463021 z M 220.95682,34.771044 c 0,-0.211881 -0.10116,-0.322715 -0.2248,-0.246301 -0.12364,0.07642 -0.1563,0.24977 -0.0726,0.385236 0.21395,0.346176 0.29738,0.307197 0.29738,-0.138935 z m -1.85208,-2.38125 c 0,-0.211881 -0.0992,-0.323916 -0.22049,-0.248968 -0.12127,0.07495 -0.22048,-0.0097 -0.22048,-0.188028 0,-0.178364 -0.0765,-0.247799 -0.17,-0.1543 -0.0935,0.0935 -0.0194,0.351464 0.16469,0.573262 0.413,0.497636 0.44628,0.49898 0.44628,0.01805 z M 53.195237,23.919145 c -0.03142,-0.214069 -0.159036,-0.481959 -0.283591,-0.595312 -0.124558,-0.113353 -0.140822,-0.05727 -0.03614,0.124635 0.110887,0.192685 0.04577,0.332419 -0.156017,0.33478 -0.251669,0.0029 -0.237858,0.07416 0.05053,0.260532 0.507357,0.32788 0.492284,0.332298 0.42522,-0.124635 z m 13.86228,-8.342031 c 0.218281,-0.141066 0.277813,-0.25648 0.132292,-0.25648 -0.145521,0 -0.443177,0.115414 -0.661459,0.25648 -0.218281,0.141065 -0.277812,0.256479 -0.132291,0.256479 0.145521,0 0.443177,-0.115414 0.661458,-0.256479 z"
       id="path2"
       sodipodi:nodetypes="sssssssssssssssssssscsssssssssssssssssssssssssssssssssssssssssssssssssssssssssssssssssssssscssssssssssssssssssssssssssssssssssssscssssssssssssssssssssssscsssssssssssssssssssssssssssssssssssssssssscsssssssssssssssssssssscscssssssssssscccsssssscccssscssssssssscssssccsssccssssssssssssssssssssscsssssssssssssssssssssssssssssssssssssscssssscsssssssssscsssssssscssssssssssscccssssssssssccscsssssssssssssssssssscsssscsssssssssssssssssssssssssssssssssssssssssssssssssssssssssssssssssssssssssssssssssscssssssssssssssssssssssssssssssssssssssssssssssssssssssssssssssssssssssssssssssssssssssssssssssssssssssssssssssssssssssssssssssssssssssssssssscssssssss" />
  </g>
</svg>
